<svg width="319" height="200" fill="none" xmlns="http://www.w3.org/2000/svg"><path fill-rule="evenodd" clip-rule="evenodd" d="M20 0C8.954 0 0 8.954 0 20v70c5.523 0 10 4.477 10 10s-4.477 10-10 10v70c0 11.046 8.954 20 20 20h279c11.046 0 20-8.954 20-20V20c0-11.046-8.954-20-20-20H20z" fill="url(#paint0_radial_1_274)"/><g clip-path="url(#clip0_1_274)"><path d="M-29.8 67.805c20.115 12.86 74.117 27.431 129.205-17.172C168.264-5.12 297.003-46.007 392.39 6.913" stroke="url(#paint1_radial_1_274)" stroke-width="10"/><path d="M6.221 12.854c4.482 19.28 33.742 55.575 114.924 46.53C222.624 48.078 357.66 76.02 385.876 161.191" stroke="url(#paint2_radial_1_274)" stroke-width="10"/><path d="M-3.619 105.889c-.687 19.549 18.45 59.301 100.49 61.911 102.549 3.263 227.673 49.782 232.896 137.341" stroke="url(#paint3_radial_1_274)" stroke-width="10"/><path d="M-21.558 138.014c26.686.646 81.1-13.079 85.262-73.145 5.203-75.084 69.63-166.384 189.213-169.57" stroke="url(#paint4_radial_1_274)" stroke-width="10"/><path stroke="#23D64F" stroke-dasharray="6 6" d="M21.5 0v200"/></g><defs><radialGradient id="paint0_radial_1_274" cx="0" cy="0" r="1" gradientUnits="userSpaceOnUse" gradientTransform="rotate(36.806 -29.653 184.293) scale(267.9 427.301)"><stop stop-color="#196939"/><stop offset="1" stop-color="#26BD47"/></radialGradient><radialGradient id="paint1_radial_1_274" cx="0" cy="0" r="1" gradientUnits="userSpaceOnUse" gradientTransform="rotate(64.499 64.061 157.565) scale(29.3117 203.637)"><stop stop-color="#5DE931"/><stop offset="1" stop-color="#69C04F" stop-opacity=".05"/></radialGradient><radialGradient id="paint2_radial_1_274" cx="0" cy="0" r="1" gradientUnits="userSpaceOnUse" gradientTransform="matrix(-13.06186 26.34065 -181.88161 -90.19188 198.74 81.595)"><stop stop-color="#5DE931"/><stop offset="1" stop-color="#69C04F" stop-opacity=".05"/></radialGradient><radialGradient id="paint3_radial_1_274" cx="0" cy="0" r="1" gradientUnits="userSpaceOnUse" gradientTransform="rotate(129.473 36.247 139.725) scale(31.087 192.008)"><stop stop-color="#5DE931"/><stop offset="1" stop-color="#69C04F" stop-opacity=".05"/></radialGradient><radialGradient id="paint4_radial_1_274" cx="0" cy="0" r="1" gradientUnits="userSpaceOnUse" gradientTransform="matrix(32.6185 14.64935 -68.39006 152.27856 108.959 13.638)"><stop stop-color="#5DE931"/><stop offset="1" stop-color="#69C04F" stop-opacity=".05"/></radialGradient><clipPath id="clip0_1_274"><rect width="319" height="200" rx="20" fill="#fff"/></clipPath></defs></svg>