<svg width="319" height="200" fill="none" xmlns="http://www.w3.org/2000/svg"><path fill-rule="evenodd" clip-rule="evenodd" d="M20 0C8.954 0 0 8.954 0 20v70c5.523 0 10 4.477 10 10s-4.477 10-10 10v70c0 11.046 8.954 20 20 20h279c11.046 0 20-8.954 20-20V20c0-11.046-8.954-20-20-20H20z" fill="url(#paint0_radial_1_398)"/><g clip-path="url(#clip0_1_398)"><path d="M209.717-266c-42.874 22.322-105.419 96.534-12.61 214.8C313.119 96.633 378.691 134.539 282.855 271" stroke="url(#paint1_radial_1_398)"/><path d="M.717-240c-42.874 22.322-105.419 96.534-12.61 214.8C104.12 122.633 169.691 160.539 73.855 297" stroke="url(#paint2_radial_1_398)"/><path d="M209.717-244c-42.874 22.364-105.419 96.713-12.61 215.2C313.119 119.308 378.691 157.285 282.855 294" stroke="url(#paint3_radial_1_398)"/><path d="M.717-217c-42.874 22.322-105.419 96.534-12.61 214.8C104.12 145.633 169.691 183.539 73.855 320" stroke="url(#paint4_radial_1_398)"/><path d="M209.717-217c-42.874 22.322-105.419 96.534-12.61 214.8C313.119 145.633 378.691 183.539 282.855 320" stroke="url(#paint5_radial_1_398)"/><path d="M.717-191c-42.874 22.364-105.419 96.713-12.61 215.2C104.12 172.308 169.691 210.285 73.855 347" stroke="url(#paint6_radial_1_398)"/><path d="M209.717-183c-42.874 22.322-105.419 96.534-12.61 214.8C313.119 179.633 378.691 217.539 282.855 354" stroke="url(#paint7_radial_1_398)"/><path d="M.717-156c-42.874 22.322-105.419 96.534-12.61 214.8C104.12 206.633 169.691 244.539 73.855 381" stroke="url(#paint8_radial_1_398)"/><path d="M209.717-155c-42.874 22.322-105.419 96.534-12.61 214.8C313.119 207.633 378.691 245.539 282.855 382" stroke="url(#paint9_radial_1_398)"/><path d="M.717-114c-42.874 22.364-105.419 96.713-12.61 215.2C104.12 249.308 169.691 287.285 73.855 424" stroke="url(#paint10_radial_1_398)"/><path d="M209.717-122c-42.874 22.322-105.419 96.534-12.61 214.8C313.119 240.633 378.691 278.539 282.855 415" stroke="url(#paint11_radial_1_398)"/><path d="M.717-96C-42.157-73.678-104.702.534-11.893 118.8 104.12 266.633 169.691 304.539 73.855 441" stroke="url(#paint12_radial_1_398)"/><path d="M209.717-100c-42.874 22.364-105.419 96.713-12.61 215.2C313.119 263.308 378.691 301.285 282.855 438" stroke="url(#paint13_radial_1_398)"/><path d="M.717-73c-42.874 22.322-105.419 96.534-12.61 214.8C104.12 289.633 169.691 327.539 73.855 464" stroke="url(#paint14_radial_1_398)"/><path d="M209.717-74c-42.874 22.322-105.419 96.534-12.61 214.8C313.119 288.633 378.691 326.539 282.855 463" stroke="url(#paint15_radial_1_398)"/><path d="M.717-48c-42.874 22.322-105.419 96.534-12.61 214.8C104.12 314.633 169.691 352.539 73.855 489" stroke="url(#paint16_radial_1_398)"/><path d="M209.717-50c-42.874 22.322-105.419 96.534-12.61 214.8C313.119 312.633 378.691 350.539 282.855 487" stroke="url(#paint17_radial_1_398)"/><path d="M.717-24c-42.874 22.322-105.419 96.534-12.61 214.8C104.12 338.633 169.691 376.539 73.855 513" stroke="url(#paint18_radial_1_398)"/></g><path stroke="#669DDE" stroke-dasharray="6 6" d="M21.5 0v200"/><defs><radialGradient id="paint0_radial_1_398" cx="0" cy="0" r="1" gradientUnits="userSpaceOnUse" gradientTransform="rotate(36.806 -29.653 184.293) scale(267.9 427.301)"><stop stop-color="#0B3A71"/><stop offset="1" stop-color="#2568B7"/></radialGradient><radialGradient id="paint1_radial_1_398" cx="0" cy="0" r="1" gradientUnits="userSpaceOnUse" gradientTransform="matrix(0 268.5 -90 0 239 2.5)"><stop stop-color="#296FC6"/><stop offset="1" stop-color="#5157BD" stop-opacity=".3"/></radialGradient><radialGradient id="paint2_radial_1_398" cx="0" cy="0" r="1" gradientUnits="userSpaceOnUse" gradientTransform="matrix(0 268.5 -90 0 30 28.5)"><stop stop-color="#296FC6"/><stop offset="1" stop-color="#5157BD" stop-opacity=".3"/></radialGradient><radialGradient id="paint3_radial_1_398" cx="0" cy="0" r="1" gradientUnits="userSpaceOnUse" gradientTransform="matrix(0 269 -90 0 239 25)"><stop stop-color="#296FC6"/><stop offset="1" stop-color="#5157BD" stop-opacity=".3"/></radialGradient><radialGradient id="paint4_radial_1_398" cx="0" cy="0" r="1" gradientUnits="userSpaceOnUse" gradientTransform="matrix(0 268.5 -90 0 30 51.5)"><stop stop-color="#296FC6"/><stop offset="1" stop-color="#5157BD" stop-opacity=".3"/></radialGradient><radialGradient id="paint5_radial_1_398" cx="0" cy="0" r="1" gradientUnits="userSpaceOnUse" gradientTransform="matrix(0 268.5 -90 0 239 51.5)"><stop stop-color="#296FC6"/><stop offset="1" stop-color="#5157BD" stop-opacity=".3"/></radialGradient><radialGradient id="paint6_radial_1_398" cx="0" cy="0" r="1" gradientUnits="userSpaceOnUse" gradientTransform="matrix(0 269 -90 0 30 78)"><stop stop-color="#296FC6"/><stop offset="1" stop-color="#5157BD" stop-opacity=".3"/></radialGradient><radialGradient id="paint7_radial_1_398" cx="0" cy="0" r="1" gradientUnits="userSpaceOnUse" gradientTransform="matrix(0 268.5 -90 0 239 85.5)"><stop stop-color="#296FC6"/><stop offset="1" stop-color="#5157BD" stop-opacity=".3"/></radialGradient><radialGradient id="paint8_radial_1_398" cx="0" cy="0" r="1" gradientUnits="userSpaceOnUse" gradientTransform="matrix(0 268.5 -90 0 30 112.5)"><stop stop-color="#296FC6"/><stop offset="1" stop-color="#5157BD" stop-opacity=".3"/></radialGradient><radialGradient id="paint9_radial_1_398" cx="0" cy="0" r="1" gradientUnits="userSpaceOnUse" gradientTransform="matrix(0 268.5 -90 0 239 113.5)"><stop stop-color="#296FC6"/><stop offset="1" stop-color="#5157BD" stop-opacity=".3"/></radialGradient><radialGradient id="paint10_radial_1_398" cx="0" cy="0" r="1" gradientUnits="userSpaceOnUse" gradientTransform="matrix(0 269 -90 0 30 155)"><stop stop-color="#296FC6"/><stop offset="1" stop-color="#5157BD" stop-opacity=".3"/></radialGradient><radialGradient id="paint11_radial_1_398" cx="0" cy="0" r="1" gradientUnits="userSpaceOnUse" gradientTransform="matrix(0 268.5 -90 0 239 146.5)"><stop stop-color="#296FC6"/><stop offset="1" stop-color="#5157BD" stop-opacity=".3"/></radialGradient><radialGradient id="paint12_radial_1_398" cx="0" cy="0" r="1" gradientUnits="userSpaceOnUse" gradientTransform="matrix(0 268.5 -90 0 30 172.5)"><stop stop-color="#296FC6"/><stop offset="1" stop-color="#5157BD" stop-opacity=".3"/></radialGradient><radialGradient id="paint13_radial_1_398" cx="0" cy="0" r="1" gradientUnits="userSpaceOnUse" gradientTransform="matrix(0 269 -90 0 239 169)"><stop stop-color="#296FC6"/><stop offset="1" stop-color="#5157BD" stop-opacity=".3"/></radialGradient><radialGradient id="paint14_radial_1_398" cx="0" cy="0" r="1" gradientUnits="userSpaceOnUse" gradientTransform="matrix(0 268.5 -90 0 30 195.5)"><stop stop-color="#296FC6"/><stop offset="1" stop-color="#5157BD" stop-opacity=".3"/></radialGradient><radialGradient id="paint15_radial_1_398" cx="0" cy="0" r="1" gradientUnits="userSpaceOnUse" gradientTransform="matrix(0 268.5 -90 0 239 194.5)"><stop stop-color="#296FC6"/><stop offset="1" stop-color="#5157BD" stop-opacity=".3"/></radialGradient><radialGradient id="paint16_radial_1_398" cx="0" cy="0" r="1" gradientUnits="userSpaceOnUse" gradientTransform="matrix(0 268.5 -90 0 30 220.5)"><stop stop-color="#296FC6"/><stop offset="1" stop-color="#5157BD" stop-opacity=".3"/></radialGradient><radialGradient id="paint17_radial_1_398" cx="0" cy="0" r="1" gradientUnits="userSpaceOnUse" gradientTransform="matrix(0 268.5 -90 0 239 218.5)"><stop stop-color="#296FC6"/><stop offset="1" stop-color="#5157BD" stop-opacity=".3"/></radialGradient><radialGradient id="paint18_radial_1_398" cx="0" cy="0" r="1" gradientUnits="userSpaceOnUse" gradientTransform="matrix(0 268.5 -90 0 30 244.5)"><stop stop-color="#296FC6"/><stop offset="1" stop-color="#5157BD" stop-opacity=".3"/></radialGradient><clipPath id="clip0_1_398"><rect width="319" height="200" rx="20" fill="#fff"/></clipPath></defs></svg>