<svg width="319" height="200" fill="none" xmlns="http://www.w3.org/2000/svg"><path fill-rule="evenodd" clip-rule="evenodd" d="M20 0C8.954 0 0 8.954 0 20v70c5.523 0 10 4.477 10 10s-4.477 10-10 10v70c0 11.046 8.954 20 20 20h279c11.046 0 20-8.954 20-20V20c0-11.046-8.954-20-20-20H20z" fill="url(#paint0_radial_1_3086)"/><g clip-path="url(#clip0_1_3086)"><path d="M-3.846 233.759L-61 229.421-40.02 348h379.824L389 58.06 227.666 162.9l-86.094 15.907 70.177-64.351-131.672 57.12-18.81-35.429-13.023 49.89L29.434 6l-33.28 227.759z" fill="url(#paint1_radial_1_3086)"/><path stroke="#CC50D1" stroke-dasharray="6 6" d="M21.5 0v200"/></g><defs><radialGradient id="paint0_radial_1_3086" cx="0" cy="0" r="1" gradientUnits="userSpaceOnUse" gradientTransform="rotate(36.806 -29.653 184.293) scale(267.9 427.301)"><stop stop-color="#681969"/><stop offset="1" stop-color="#B126BD"/></radialGradient><radialGradient id="paint1_radial_1_3086" cx="0" cy="0" r="1" gradientUnits="userSpaceOnUse" gradientTransform="matrix(0 171 -225 0 164 177)"><stop stop-color="#6F2176"/><stop offset="1" stop-color="#3B0940" stop-opacity="0"/></radialGradient><clipPath id="clip0_1_3086"><rect width="319" height="200" rx="20" fill="#fff"/></clipPath></defs></svg>