<svg width="12" height="12" fill="none" xmlns="http://www.w3.org/2000/svg"><g clip-path="url(#clip0_103_2394)"><path d="M11.633 4.704A7.93 7.93 0 009.95 2.75l1.399-1.4a.5.5 0 00-.707-.706L9.12 2.168A6.025 6.025 0 006 1.323c-3.094 0-4.858 2.118-5.633 3.38a2.453 2.453 0 000 2.58A7.93 7.93 0 002.05 9.239l-1.399 1.4a.5.5 0 10.707.706l1.525-1.526c.942.56 2.02.853 3.116.847 3.094 0 4.858-2.119 5.633-3.381.49-.79.49-1.79 0-2.58zm-8.632 1.29a2.994 2.994 0 014.734-2.442l-.726.726A1.973 1.973 0 006 3.995a2 2 0 00-2 1.999c.003.356.1.704.284 1.009l-.726.726a2.98 2.98 0 01-.557-1.735zM6 8.993a2.98 2.98 0 01-1.735-.558l.726-.725c.305.183.653.281 1.009.283a2 2 0 002-2 1.973 1.973 0 00-.284-1.008l.726-.726A2.994 2.994 0 016 8.993z" fill="#A8A2BE"/></g><defs><clipPath id="clip0_103_2394"><path fill="#fff" d="M0 0h12v12H0z"/></clipPath></defs></svg>