<svg width="50" height="50" fill="none" xmlns="http://www.w3.org/2000/svg"><path d="M25 33.33a8.33 8.33 0 100-16.66 8.33 8.33 0 000 16.66z" fill="#A8A2BE"/><path d="M48.473 19.625C45.243 14.365 37.895 5.538 25 5.538S4.758 14.364 1.527 19.625a10.221 10.221 0 000 10.75C4.757 35.635 12.105 44.462 25 44.462s20.242-8.826 23.473-14.087a10.222 10.222 0 000-10.75zM25 37.495c-6.9 0-12.495-5.594-12.495-12.495 0-6.901 5.594-12.495 12.495-12.495 6.901 0 12.495 5.594 12.495 12.495-.007 6.898-5.597 12.488-12.495 12.495z" fill="#A8A2BE"/></svg>