<svg width="100" height="100" fill="none" xmlns="http://www.w3.org/2000/svg"><g clip-path="url(#clip0_134_4315)"><path fill="#fff" d="M0 0h100v100H0z"/><path d="M46.022 29.223A50.131 50.131 0 0131.16 48.77 49.783 49.783 0 00.005 37.87V-1.227a50.013 50.013 0 0146.017 30.45z" fill="url(#paint0_linear_134_4315)"/><path d="M50.003 48.764a50.03 50.03 0 01-35.532 47.86 20.13 20.13 0 01-1.402.419A50.234 50.234 0 010 98.767V86.122a6.908 6.908 0 000-13.81v-12.66a50.143 50.143 0 0013.069-1.724 50.071 50.071 0 0032.943-28.721 49.536 49.536 0 013.99 19.557z" fill="url(#paint1_linear_134_4315)"/><path d="M13.069 93.492v3.567c.478-.124.94-.264 1.402-.42v-3.147h-1.402zm0-12.988v6.494h1.402v-6.51l-1.402.016zm0-13.004v6.494h1.402v-6.51l-1.402.016zm0-9.54v3.046h1.402v-3.449c-.462.124-.94.263-1.402.387v.016z" fill="#fff"/><path d="M53.978 70.744a50.142 50.142 0 0114.868-19.547A49.76 49.76 0 00100 62.096v39.099a50.02 50.02 0 01-46.022-30.451z" fill="url(#paint2_linear_134_4315)"/><path d="M93.092 20.747a6.893 6.893 0 006.892 6.913v12.655a50.135 50.135 0 00-13.069 1.719c-.456.123-.94.263-1.402.403a49.745 49.745 0 00-16.694 8.755A50.287 50.287 0 0053.978 70.75a50.014 50.014 0 0131.54-67.416c.463-.14.924-.28 1.403-.403a50.143 50.143 0 0113.068-1.724v12.628a6.908 6.908 0 00-6.897 6.913z" fill="url(#paint3_linear_134_4315)"/><path d="M85.513 38.505v3.926c.462-.14.945-.28 1.402-.403v-3.523h-1.402zm0-13.01v6.516h1.402v-6.516h-1.402zm0-12.983v6.494h1.402v-6.494h-1.402zm0-9.18v2.686h1.402V2.93c-.478.123-.94.263-1.402.403z" fill="#fff"/></g><defs><linearGradient id="paint0_linear_134_4315" x1="44.776" y1="31.624" x2="6.835" y2="12.398" gradientUnits="userSpaceOnUse"><stop stop-color="#627EFF"/><stop offset=".99" stop-color="#3C2AFF"/></linearGradient><linearGradient id="paint1_linear_134_4315" x1="8.289" y1="78.173" x2="53.409" y2="36.642" gradientUnits="userSpaceOnUse"><stop stop-color="#FF8FFF"/><stop offset="1" stop-color="#2885FE"/></linearGradient><linearGradient id="paint2_linear_134_4315" x1="98.754" y1="84.049" x2="60.81" y2="64.819" gradientUnits="userSpaceOnUse"><stop stop-color="#627EFF"/><stop offset=".99" stop-color="#3C2AFF"/></linearGradient><linearGradient id="paint3_linear_134_4315" x1="58.285" y1="50.161" x2="103.395" y2="8.64" gradientUnits="userSpaceOnUse"><stop stop-color="#FF8FFF"/><stop offset="1" stop-color="#2885FE"/></linearGradient><clipPath id="clip0_134_4315"><path fill="#fff" d="M0 0h100v100H0z"/></clipPath></defs></svg>