<svg width="20" height="14" fill="none" xmlns="http://www.w3.org/2000/svg"><path d="M18.502.448H1.498C.67.448 0 1.118 0 1.946v10.108c0 .827.67 1.498 1.498 1.498h17.004c.827 0 1.498-.67 1.498-1.498V1.946c0-.827-.67-1.498-1.498-1.498z" fill="#F5F5F5"/><path d="M.082 1.456h19.836A1.498 1.498 0 0018.502.448H1.498A1.5 1.5 0 00.082 1.456zM20 4.48H0v1.008h20V4.48zm0-2.016H0v1.008h20V2.464zM0 7.16c0 .19.154.344.345.344H20V6.496H0v.663zm20 3.368H0v1.008h20v-1.008zm-.082 2.016H.082a1.5 1.5 0 001.416 1.008h17.004a1.5 1.5 0 001.416-1.008zM20 8.512H0V9.52h20V8.512z" fill="#FF4B55"/><path d="M.345 7.504h8.62a.344.344 0 00.345-.345V.793a.345.345 0 00-.344-.345H1.498C.67.448 0 1.118 0 1.946V7.16c0 .19.154.345.345.345z" fill="#41479B"/><path d="M.968 1.24l.077.229.241.002c.031 0 .044.04.019.058l-.194.144.073.23a.033.033 0 01-.05.036l-.196-.14-.197.14a.033.033 0 01-.05-.036l.073-.23-.194-.144a.033.033 0 01.02-.058l.24-.002.077-.229c.01-.03.051-.03.061 0zm0 1.197l.077.23.241.001c.031 0 .044.04.019.059l-.194.143.073.23a.033.033 0 01-.05.036l-.196-.14-.197.14a.033.033 0 01-.05-.036l.073-.23-.194-.143a.033.033 0 01.02-.059l.24-.002.077-.229c.01-.03.051-.03.061 0zm0 1.198l.077.228.241.002c.031 0 .044.04.019.059l-.194.143.073.23a.033.033 0 01-.05.037l-.196-.14-.197.14a.033.033 0 01-.05-.037l.073-.23-.194-.143a.033.033 0 01.02-.059l.24-.002.077-.228c.01-.03.051-.03.061 0zm0 1.197l.077.229.241.002c.031 0 .044.04.019.058l-.194.144.073.23a.033.033 0 01-.05.036l-.196-.14-.197.14a.033.033 0 01-.05-.036l.073-.23-.194-.143a.033.033 0 01.02-.06l.24-.001.077-.229c.01-.03.051-.03.061 0zm0 1.198l.077.228.241.002c.031 0 .044.04.019.059l-.194.143.073.23a.033.033 0 01-.05.037l-.196-.14-.197.14a.033.033 0 01-.05-.037l.073-.23L.57 6.32a.033.033 0 01.02-.059l.24-.002.077-.228c.01-.03.051-.03.061 0zm.93-4.203l.076.229.241.002c.032 0 .045.04.02.058l-.195.144.073.23a.033.033 0 01-.05.036l-.196-.14-.196.14a.033.033 0 01-.05-.036l.073-.23-.195-.144a.033.033 0 01.02-.058l.24-.002.077-.23c.01-.029.052-.029.062 0zm0 1.197l.076.23h.241c.032.001.045.041.02.06l-.195.143.073.23a.033.033 0 01-.05.036l-.196-.14-.196.14a.033.033 0 01-.05-.036l.073-.23-.195-.143a.033.033 0 01.02-.06h.24l.077-.23c.01-.03.052-.03.062 0zm0 1.198l.076.229.241.001c.032 0 .045.04.02.06l-.195.142.073.23a.033.033 0 01-.05.037l-.196-.14-.196.14a.033.033 0 01-.05-.036l.073-.23-.195-.144a.033.033 0 01.02-.059l.24-.001.077-.23c.01-.029.052-.029.062 0zm0 1.198l.076.228.241.002c.032 0 .045.04.02.059l-.195.143.073.23a.033.033 0 01-.05.036l-.196-.14-.196.14a.033.033 0 01-.05-.036l.073-.23-.195-.143a.033.033 0 01.02-.06h.24l.077-.23c.01-.03.052-.03.062 0zm.929-4.18l.077.229.24.002c.032 0 .045.04.02.058l-.194.144.073.23a.033.033 0 01-.05.036l-.197-.14-.196.14a.033.033 0 01-.05-.036l.073-.23-.194-.144a.033.033 0 01.019-.058l.241-.002.077-.23a.032.032 0 01.061 0zm0 1.197l.077.23.24.001c.032 0 .045.04.02.059l-.194.143.073.23a.033.033 0 01-.05.036l-.197-.14-.196.14a.033.033 0 01-.05-.036l.073-.23-.194-.143a.033.033 0 01.019-.059l.241-.002.077-.229c.01-.03.051-.03.061 0zm0 1.198l.077.228.24.002c.032 0 .045.04.02.059l-.194.143.073.23a.033.033 0 01-.05.037l-.197-.14-.196.14a.033.033 0 01-.05-.037l.073-.23-.194-.143a.033.033 0 01.019-.059l.241-.002.077-.228c.01-.03.051-.03.061 0zm0 1.197l.077.229.24.002c.032 0 .045.04.02.058l-.194.144.073.23a.033.033 0 01-.05.036l-.197-.14-.196.14a.033.033 0 01-.05-.036l.073-.23-.194-.144a.033.033 0 01.019-.058l.241-.002.077-.229c.01-.03.051-.03.061 0zm0 1.198l.077.228.24.002c.032 0 .045.04.02.059l-.194.143.073.23a.033.033 0 01-.05.037l-.197-.14-.196.14a.033.033 0 01-.05-.037l.073-.23-.194-.143a.033.033 0 01.019-.059l.241-.002.077-.228c.01-.03.051-.03.061 0zm.93-4.203l.076.229.241.002c.032 0 .044.04.02.058l-.195.144.073.23a.033.033 0 01-.05.036l-.196-.14-.196.14a.033.033 0 01-.05-.036l.072-.23-.194-.144a.033.033 0 01.02-.058l.24-.002.077-.23c.01-.029.052-.029.062 0zm0 1.197l.076.23h.241c.032.001.044.041.02.06l-.195.143.073.23a.033.033 0 01-.05.036l-.196-.14-.196.14a.033.033 0 01-.05-.036l.072-.23-.194-.143a.033.033 0 01.02-.06h.24l.077-.23c.01-.03.052-.03.062 0zm0 1.198l.076.229.241.001c.032 0 .044.04.02.06l-.195.142.073.23a.033.033 0 01-.05.037l-.196-.14-.196.14a.033.033 0 01-.05-.036l.072-.23-.194-.144a.033.033 0 01.02-.059l.24-.001.077-.23c.01-.029.052-.029.062 0zm0 1.198l.076.228.241.002c.032 0 .044.04.02.059l-.195.143.073.23a.033.033 0 01-.05.036l-.196-.14-.196.14a.033.033 0 01-.05-.036l.072-.23-.194-.143a.033.033 0 01.02-.06h.24l.077-.23c.01-.03.052-.03.062 0zm.929-4.18l.076.229.242.001c.03 0 .044.04.019.06l-.194.142.072.23a.033.033 0 01-.05.037l-.196-.14-.196.14a.033.033 0 01-.05-.036l.073-.23-.194-.144a.033.033 0 01.019-.058l.241-.002.076-.23c.01-.029.052-.029.062 0zm0 1.197l.076.23.242.001c.03 0 .044.04.019.059l-.194.143.072.23a.033.033 0 01-.05.036l-.196-.14-.196.14a.033.033 0 01-.05-.036l.073-.23-.194-.143a.033.033 0 01.019-.059l.241-.002.076-.229c.01-.03.052-.03.062 0zm0 1.198l.076.228.242.002c.03 0 .044.04.019.059l-.194.143.072.23a.033.033 0 01-.05.037l-.196-.14-.196.14a.033.033 0 01-.05-.037l.073-.23-.194-.143a.033.033 0 01.019-.059l.241-.002.076-.228c.01-.03.052-.03.062 0zm0 1.197l.076.229.242.002c.03 0 .044.04.019.058l-.194.144.072.23a.033.033 0 01-.05.036l-.196-.14-.196.14a.033.033 0 01-.05-.036l.073-.23-.194-.144a.033.033 0 01.019-.058l.241-.002.076-.229c.01-.03.052-.03.062 0zm0 1.198l.076.228.242.002c.03 0 .044.04.019.059l-.194.143.072.23a.033.033 0 01-.05.037l-.196-.14-.196.14a.033.033 0 01-.05-.037l.073-.23-.194-.143a.033.033 0 01.019-.059l.241-.002.076-.228c.01-.03.052-.03.062 0zm.929-4.203l.077.229.241.002c.031 0 .044.04.02.058l-.195.144.073.23a.033.033 0 01-.05.036l-.196-.14-.197.14a.033.033 0 01-.05-.036l.073-.23-.194-.144a.033.033 0 01.02-.058l.24-.002.077-.23c.01-.029.052-.029.061 0zm0 1.197l.077.23h.241c.031.001.044.041.02.06l-.195.143.073.23a.033.033 0 01-.05.036l-.196-.14-.197.14a.033.033 0 01-.05-.036l.073-.23-.194-.143a.033.033 0 01.02-.06h.24l.077-.23c.01-.03.052-.03.061 0zm0 1.198l.077.229.241.001c.031 0 .044.04.02.06l-.195.142.073.23a.033.033 0 01-.05.037l-.196-.14-.197.14a.033.033 0 01-.05-.036l.073-.23-.194-.144a.033.033 0 01.02-.059l.24-.001.077-.23c.01-.029.052-.029.061 0zm0 1.198l.077.228.241.002c.031 0 .044.04.02.059l-.195.143.073.23a.033.033 0 01-.05.036l-.196-.14-.197.14a.033.033 0 01-.05-.036l.073-.23-.194-.143a.033.033 0 01.02-.06h.24l.077-.23c.01-.03.052-.03.061 0zm.93-4.18l.076.229.241.002c.032 0 .045.04.02.058l-.195.144.073.23a.033.033 0 01-.05.036l-.196-.14-.196.14a.033.033 0 01-.05-.036l.073-.23-.194-.144a.033.033 0 01.019-.058l.24-.002.077-.23c.01-.029.052-.029.062 0zm0 1.197l.076.23.241.001c.032 0 .045.04.02.059l-.195.143.073.23a.033.033 0 01-.05.036l-.196-.14-.196.14a.033.033 0 01-.05-.036l.073-.23-.194-.143a.033.033 0 01.019-.059l.24-.002.077-.229c.01-.03.052-.03.062 0zm0 1.198l.076.228.241.002c.032 0 .045.04.02.059l-.195.143.073.23a.033.033 0 01-.05.037l-.196-.14-.196.14a.033.033 0 01-.05-.037l.073-.23-.194-.143a.033.033 0 01.019-.059l.24-.002.077-.228c.01-.03.052-.03.062 0zm0 1.197l.076.229.241.002c.032 0 .045.04.02.058l-.195.144.073.23a.033.033 0 01-.05.036l-.196-.14-.196.14a.033.033 0 01-.05-.036l.073-.23-.194-.144a.033.033 0 01.019-.058l.24-.002.077-.229c.01-.03.052-.03.062 0zm0 1.198l.076.228.241.002c.032 0 .045.04.02.059l-.195.143.073.23a.033.033 0 01-.05.037l-.196-.14-.196.14a.033.033 0 01-.05-.037l.073-.23-.194-.143a.033.033 0 01.019-.059l.24-.002.077-.228c.01-.03.052-.03.062 0zm.929-4.203l.077.229.24.002c.032 0 .045.04.02.058l-.194.144.073.23a.033.033 0 01-.05.036l-.196-.14-.197.14a.033.033 0 01-.05-.036l.073-.23-.194-.144a.033.033 0 01.02-.058l.24-.002.077-.23a.032.032 0 01.061 0zm0 1.197l.077.23h.24c.032.001.045.041.02.06l-.194.143.073.23a.033.033 0 01-.05.036l-.196-.14-.197.14a.033.033 0 01-.05-.036l.073-.23-.194-.143a.033.033 0 01.02-.06h.24l.077-.23c.01-.03.051-.03.061 0zm0 1.198l.077.229.24.001c.032 0 .045.04.02.06l-.194.142.073.23a.033.033 0 01-.05.037l-.196-.14-.197.14a.033.033 0 01-.05-.036l.073-.23-.194-.144a.033.033 0 01.02-.059l.24-.001.077-.23a.032.032 0 01.061 0zm0 1.198l.077.228.24.002c.032 0 .045.04.02.059l-.194.143.073.23a.033.033 0 01-.05.036l-.196-.14-.197.14a.033.033 0 01-.05-.036l.073-.23-.194-.143a.033.033 0 01.02-.06h.24l.077-.23c.01-.03.051-.03.061 0zm.93-4.18l.076.229.241.002c.032 0 .045.04.02.058l-.195.144.073.23a.033.033 0 01-.05.036l-.196-.14-.196.14a.033.033 0 01-.05-.036l.073-.23-.195-.144a.033.033 0 01.02-.058l.24-.002.077-.23c.01-.029.052-.029.062 0zm0 1.197l.076.23.241.001c.032 0 .045.04.02.059l-.195.143.073.23a.033.033 0 01-.05.036l-.196-.14-.196.14a.033.033 0 01-.05-.036l.073-.23-.195-.143a.033.033 0 01.02-.059l.24-.002.077-.229c.01-.03.052-.03.062 0zm0 1.198l.076.228.241.002c.032 0 .045.04.02.059l-.195.143.073.23a.033.033 0 01-.05.037l-.196-.14-.196.14a.033.033 0 01-.05-.037l.073-.23-.195-.143a.033.033 0 01.02-.059l.24-.002.077-.228c.01-.03.052-.03.062 0zm0 1.197l.076.229.241.002c.032 0 .045.04.02.058l-.195.144.073.23a.033.033 0 01-.05.036l-.196-.14-.196.14a.033.033 0 01-.05-.036l.073-.23-.195-.144a.033.033 0 01.02-.058l.24-.002.077-.229c.01-.03.052-.03.062 0zm0 1.198l.076.228.241.002c.032 0 .045.04.02.059l-.195.143.073.23a.033.033 0 01-.05.037l-.196-.14-.196.14a.033.033 0 01-.05-.037l.073-.23-.195-.143a.033.033 0 01.02-.059l.24-.002.077-.228c.01-.03.052-.03.062 0z" fill="#F5F5F5"/></svg>