<svg width="1767" height="405" fill="none" xmlns="http://www.w3.org/2000/svg"><g clip-path="url(#clip0_90_2674)" stroke="#2D6BB3" stroke-width=".871"><path d="M1562.36 98.359v-.001c.5-4.964 3.32-10.442 6.95-13.435 3.44 3.99 4.49 9.451 4.14 14.1v.002c-.35 4.973-3.01 10.413-7.23 13.232-3.43-3.725-4.33-9.333-3.86-13.898zm39.45.774c-7.71 15.655 6.45 32.281 22.65 28.844.79 4.795 1.09 7.103 1.13 11.938.02 3.494-.08 7.469-.87 11.035-.79 3.57-2.26 6.658-4.91 8.465v.001c-2.2 1.511-4.09 1.821-6.22 2.17-.16.028-.33.055-.5.084-2.35.395-4.97.946-8.4 3.275v.001l-2.88-65.813z"/></g><g clip-path="url(#clip1_90_2674)" stroke="#2D6BB3" stroke-width=".871"><path d="M1730.19 28.842h0c3.61-.572 8 .392 10.82 2.375-2.21 3.143-5.87 4.895-9.23 5.518h0c-3.59.673-7.93-.182-10.73-2.614 2.02-3.087 5.81-4.76 9.14-5.279zm6.79 28.303c-12.72-2.482-21.97 10.816-16.52 21.848-3.22 1.446-4.83 2.091-8.26 3.021-2.51.68-5.38 1.357-8.08 1.462-2.71.105-5.17-.367-6.95-1.906h0c-1.48-1.283-2.05-2.56-2.71-4.026l-.15-.345c-.74-1.628-1.64-3.423-3.98-5.466s-4.25-2.729-5.98-3.276l-.33-.106c-1.56-.493-2.92-.923-4.4-2.248h0c-1.75-1.575-2.57-3.841-2.85-6.398-.28-2.558-.02-5.354.34-7.926 1.01-7.14 3.69-13.493 7.19-18.354 3.5-4.867 7.81-8.209 12.05-9.383 6.09-1.681 12.18-.386 15.96 2.95 1.93 1.701 3.04 3.616 4.1 5.51.05.096.1.19.16.285.99 1.787 1.98 3.568 3.61 5.005 1.51 1.337 3.18 1.968 4.91 2.623.17.066.35.133.53.2 1.92.739 3.98 1.615 6.23 3.594 3.26 2.88 5.23 7.67 5.13 12.936z"/></g><g clip-path="url(#clip2_90_2674)" stroke="#2D6BB3" stroke-width=".871"><path d="M1503.12 297.038v-.001c-.55-4.959 1.08-10.904 4.01-14.582 4.19 3.192 6.35 8.318 6.98 12.938v.001c.68 4.94-.8 10.812-4.35 14.443-4.12-2.934-6.16-8.236-6.64-12.799zm38.75-7.404c-4.3 16.911 12.99 30.249 28.13 23.534 1.77 4.526 2.54 6.722 3.57 11.446.75 3.413 1.47 7.323 1.44 10.975-.04 3.657-.84 6.982-3.06 9.299v.001c-1.84 1.933-3.62 2.626-5.63 3.409-.16.061-.31.123-.47.185-2.23.874-4.67 1.955-7.55 4.943v.001l-16.43-63.793z"/></g><g clip-path="url(#clip3_90_2674)" stroke="#2D6BB3" stroke-width=".871"><path d="M1519.84 16.535l.01-.001c2.54-2.313 6.49-3.826 9.74-3.729-.12 3.613-2.1 6.884-4.43 9.113h0c-2.48 2.387-6.34 3.957-9.8 3.497 0-3.472 2.13-6.748 4.48-8.88zm20.01 18.827c-11.34 4.655-11.75 19.957-1.73 25.864-1.79 2.803-2.72 4.143-4.94 6.65-1.64 1.84-3.55 3.863-5.63 5.346-2.09 1.487-4.28 2.39-6.47 2.094h0c-1.84-.243-2.95-.954-4.22-1.773l-.3-.192c-1.43-.908-3.08-1.862-6-2.262-2.91-.402-4.78.049-6.43.51-.1.03-.21.06-.32.089-1.49.421-2.78.787-4.63.505h0c-2.2-.333-4.02-1.696-5.56-3.57-1.55-1.875-2.79-4.221-3.84-6.441-2.91-6.162-4.09-12.572-3.84-18.229.25-5.664 1.92-10.535 4.66-13.659 3.93-4.482 9.41-6.613 14.13-5.94 2.4.345 4.27 1.28 6.09 2.23l.27.144c1.71.897 3.42 1.794 5.46 2.085 1.9.271 3.55-.095 5.25-.474l.52-.116c1.91-.415 3.99-.79 6.79-.39 4.06.58 8.08 3.333 10.74 7.529z"/></g><g clip-path="url(#clip4_90_2674)" stroke="#2D6BB3" stroke-width=".871"><path d="M1722.39 159.589h0c5.16-1.821 11.91-1.568 16.56.646-2.35 5.278-7.27 8.869-12.04 10.692h0c-5.1 1.962-11.73 1.861-16.49-1.027 2.08-5.147 7.23-8.651 11.97-10.311zm17.6 39.396c-19.05-.388-28.91 21.326-17.97 35.716-4.39 3.027-6.53 4.396-11.3 6.683-3.44 1.647-7.41 3.393-11.31 4.267-3.9.874-7.64.858-10.67-.928v-.001c-2.52-1.478-3.7-3.201-5.04-5.14-.1-.151-.21-.304-.31-.459-1.48-2.14-3.24-4.462-7.12-6.765 0 0 0 0 0 0l63.72-33.373zm0 0c-1.21-7.77-5.38-14.311-10.97-17.666-3.79-2.275-7.02-2.998-10-3.552l-.81-.15c-2.67-.486-5.2-.947-7.71-2.452-2.7-1.62-4.58-3.9-6.49-6.218l-.3-.362c-2.02-2.453-4.15-4.942-7.42-6.902-6.4-3.846-15.6-4.09-23.98-.028l67.68 37.33z"/></g><g clip-path="url(#clip5_90_2674)" stroke="#2D6BB3" stroke-width=".871"><path d="M1511.04 184.743v-.001c1.89-.664 4.33-.602 6.08.137-.92 1.866-2.72 3.159-4.48 3.831v.001c-1.88.722-4.29.705-6.06-.269.83-1.817 2.7-3.082 4.46-3.699zm-24.77 26.097h0c.94.577 1.72.674 2.66.791l.2.025c1.05.132 2.23.326 3.8 1.26m-6.66-2.076l6.44 2.45m-6.44-2.45c-1.11-.677-1.79-1.83-2.21-3.229-.42-1.399-.56-2.995-.62-4.489-.18-4.127.67-7.983 2.14-11.08 1.47-3.104 3.54-5.412 5.78-6.497 3.23-1.568 6.75-1.462 9.19-.001 1.24.747 2.05 1.695 2.85 2.659l.12.151c.75.906 1.52 1.836 2.62 2.498 1.03.619 2.07.809 3.12.998l.32.06c1.16.216 2.4.493 3.85 1.365 2.05 1.231 3.62 3.605 4.14 6.463m-31.3 11.102l31.75-11.097c-.15-.005-.3-.006-.45-.005m-24.64 13.178l-.22.374m.22-.374s0 0 0 0l-.22.374m.22-.374c1.58.933 2.29 1.882 2.89 2.74l.12.177c.53.764.96 1.398 1.9 1.95h0c1.11.654 2.51.673 4.01.335 1.5-.337 3.05-1.013 4.4-1.66m-13.54-3.168c1.61.955 2.27 1.913 2.88 2.797.52.762 1.01 1.47 2.03 2.071 2.5 1.472 6.1-.009 8.82-1.307m-.19-.393l.19.393m-.19-.393s0 0 0 0l.19.393m-.19-.393c1.78-.852 2.61-1.375 4.19-2.456m-4 2.849c1.81-.868 2.66-1.404 4.26-2.5a6.436 6.436 0 01-.26-.349m0 0c.11-.079.23-.161.36-.247-3.94-5.496-.26-13.548 6.84-13.582a6.352 6.352 0 00-.07-.435m-7.13 14.264c-4.11-5.746-.3-14.179 7.13-14.264"/></g><g clip-path="url(#clip6_90_2674)" stroke="#2D6BB3" stroke-width=".871"><path d="M1641.3 363.238v-.002c.42-1.951 1.75-4.002 3.3-5.107 1.1 1.765 1.27 3.971.92 5.824v.001c-.37 1.976-1.65 4.022-3.4 5.024-1.12-1.661-1.22-3.917-.82-5.74zm9.27 34.768h0c.99-.5 1.48-1.115 2.07-1.855l.12-.155c.66-.822 1.45-1.73 3.07-2.581m-5.26 4.591l5.46-4.206m-5.46 4.206c-1.15.589-2.49.566-3.9.191-1.42-.376-2.85-1.09-4.16-1.818-3.61-2.01-6.44-4.754-8.32-7.625-1.87-2.877-2.75-5.849-2.51-8.322.36-3.574 2.29-6.521 4.81-7.83 1.29-.669 2.52-.866 3.76-1.04l.19-.027c1.16-.161 2.36-.327 3.5-.921 1.07-.554 1.77-1.344 2.48-2.136.08-.082.15-.163.22-.244.79-.877 1.68-1.785 3.18-2.566 2.12-1.102 4.96-1.193 7.67-.146m-6.92 32.484l7.16-32.859-.24.375m-1.66 27.893l.2.385m-.2-.385s0 0 0 0l.2.385m-.2-.385c1.62-.853 2.8-.968 3.84-1.025l.22-.011c.92-.048 1.69-.088 2.65-.601l.01-.001c1.13-.601 1.88-1.779 2.38-3.24.5-1.455.73-3.124.88-4.614m-9.78 9.877c1.66-.872 2.82-.932 3.89-.987.92-.047 1.78-.091 2.83-.651 2.56-1.354 3.19-5.204 3.5-8.194m-.44-.045l.44.045m-.44-.045s0 0 0 0l.44.045m-.44-.045c.21-1.963.2-2.95.11-4.856m.33 4.901c.21-1.999.2-3.009.1-4.941-.15.017-.29.03-.43.04m0 0l-.03-.435c-6.74.478-11.67-6.875-7.99-12.943a7.775 7.775 0 00-.41-.167m8.43 13.545c-7.05.493-12.24-7.17-8.43-13.545"/></g><g clip-path="url(#clip7_90_2674)" stroke="#2D6BB3" stroke-width=".803"><path d="M102.455 118.189v-.001c.395-4.584 2.929-9.672 6.236-12.478 3.221 3.635 4.261 8.658 4.002 12.95v.001c-.266 4.59-2.644 9.641-6.504 12.294-3.21-3.391-4.108-8.55-3.734-12.766zm36.389.209c-6.91 14.535 6.358 29.686 21.253 26.309.795 4.411 1.1 6.535 1.195 10.994.069 3.222.026 6.889-.658 10.187-.685 3.302-2 6.168-4.422 7.869l-.001.001c-2.011 1.421-3.744 1.731-5.702 2.081l-.463.083c-2.167.395-4.572.937-7.706 3.128-3.132 2.188-4.516 4.265-5.684 6.163l-.228.373c-1.059 1.732-1.996 3.264-4.055 4.659h-.001c-2.455 1.667-5.463 1.972-8.639 1.542-3.177-.429-6.473-1.587-9.46-2.79-8.306-3.344-15.163-8.476-19.977-14.156-4.819-5.685-7.568-11.891-7.716-17.382l52.264-39.061zm0 0c-6.385-1.758-12.846-.832-17.36 2.288-3.068 2.121-4.749 4.353-6.214 6.452-.135.192-.267.384-.399.575-1.305 1.885-2.547 3.68-4.586 5.089-2.194 1.515-4.609 2.168-7.059 2.83l-.384.103c-2.594.704-5.249 1.474-7.892 3.301-5.184 3.582-8.575 10.565-8.37 18.423l52.264-39.061z"/></g><g clip-path="url(#clip8_90_2674)" stroke="#2D6BB3" stroke-width=".803"><path d="M233.566 42.6h.001c3.323-.529 7.375.36 9.975 2.19-2.035 2.898-5.414 4.514-8.514 5.088h-.001c-3.311.622-7.313-.168-9.896-2.41 1.865-2.847 5.364-4.39 8.435-4.868zm6.261 26.102c-11.731-2.29-20.264 9.975-15.235 20.148-2.976 1.334-4.453 1.93-7.616 2.787-2.314.628-4.962 1.252-7.455 1.348-2.497.097-4.773-.338-6.407-1.758h-.001c-1.37-1.183-1.897-2.36-2.501-3.712l-.142-.319c-.677-1.501-1.508-3.156-3.669-5.041-2.158-1.884-3.921-2.516-5.509-3.021l-.308-.098c-1.442-.455-2.698-.85-4.058-2.073h0c-1.618-1.452-2.372-3.542-2.63-5.9-.258-2.36-.015-4.938.318-7.31.924-6.585 3.396-12.444 6.626-16.927 3.234-4.489 7.206-7.57 11.117-8.654l37.47 30.53zm0 0c.091-4.856-1.723-9.274-4.735-11.93-2.069-1.825-3.97-2.634-5.745-3.314l-.489-.186c-1.594-.603-3.13-1.185-4.529-2.419-1.502-1.325-2.415-2.967-3.33-4.615a34.38 34.38 0 01-.146-.262c-.974-1.748-1.999-3.514-3.779-5.083-3.488-3.076-9.104-4.271-14.716-2.72l37.469 30.529z"/></g><g clip-path="url(#clip9_90_2674)" stroke="#2D6BB3" stroke-width=".803"><path d="M117.249 296.532l.001.001c4.361 1.464 8.708 5.127 10.655 9.002-4.292 2.273-9.418 2.099-13.528.835h-.001c-4.398-1.341-8.746-4.844-10.414-9.22 4.053-2.32 9.278-1.976 13.287-.618zm-8.785 35.313c-12.495-10.143-30.347-.822-30.578 14.45-4.474-.268-6.61-.473-10.966-1.431-3.148-.693-6.7-1.6-9.744-3.042-3.048-1.445-5.523-3.399-6.605-6.153v-.001c-.907-2.29-.8-4.048-.678-6.032l.028-.47c.128-2.199.168-4.664-1.223-8.226-1.387-3.561-3.079-5.395-4.649-6.977a60.56 60.56 0 00-.308-.31c-1.434-1.438-2.701-2.71-3.57-5.04h-.001c-1.04-2.779-.628-5.775.539-8.76 1.166-2.985 3.069-5.915 4.942-8.534 5.209-7.284 11.813-12.737 18.468-16.076 6.661-3.342 13.34-4.551 18.71-3.399l25.635 60.001zm0 0c3.215-5.79 3.838-12.287 1.871-17.409-1.337-3.483-3.11-5.642-4.805-7.561l-.465-.524c-1.524-1.712-2.975-3.342-3.863-5.656-.956-2.489-1.02-4.991-1.086-7.527a51.294 51.294 0 00-.01-.397c-.072-2.688-.194-5.449-1.346-8.448-2.26-5.883-8.245-10.825-15.93-12.479l25.634 60.001z"/></g><g clip-path="url(#clip10_90_2674)" stroke="#2D6BB3" stroke-width=".803"><path d="M49.212 30.446v-.001c2.344-2.133 5.992-3.528 8.987-3.439-.113 3.332-1.938 6.35-4.085 8.405h0c-2.288 2.201-5.845 3.648-9.04 3.225.006-3.203 1.965-6.224 4.138-8.19zM67.658 47.81c-10.45 4.292-10.832 18.404-1.59 23.852-1.653 2.585-2.512 3.821-4.562 6.133-1.505 1.697-3.273 3.562-5.191 4.93-1.923 1.372-3.942 2.205-5.963 1.931h-.001c-1.692-.224-2.716-.88-3.895-1.635a91.242 91.242 0 00-.277-.177c-1.316-.837-2.835-1.716-5.525-2.086-2.688-.37-4.414.045-5.932.47l-.294.083c-1.377.388-2.571.725-4.275.465h-.001c-2.026-.307-3.702-1.564-5.127-3.293-1.426-1.729-2.57-3.892-3.538-5.94-2.684-5.682-3.77-11.594-3.542-16.81.229-5.225 1.77-9.717 4.296-12.598 3.63-4.133 8.682-6.098 13.028-5.477 2.217.317 3.941 1.18 5.618 2.056l.252.132c1.578.828 3.155 1.655 5.034 1.924 1.75.25 3.27-.088 4.844-.438l.482-.107c1.756-.383 3.675-.729 6.254-.36 3.745.535 7.46 3.075 9.905 6.944z"/></g><g clip-path="url(#clip11_90_2674)" stroke="#2D6BB3" stroke-width=".803"><path d="M220.868 234.789l.001-.001c2.522-.89 5.811-.787 8.122.248-1.194 2.54-3.602 4.284-5.949 5.181h-.001c-2.503.964-5.741.928-8.094-.429 1.07-2.475 3.581-4.179 5.921-4.999zm8.679 19.683c-9.64-.034-14.608 10.93-9.181 18.305-2.125 1.463-3.211 2.148-5.57 3.278-1.748.838-3.754 1.718-5.713 2.157-1.963.441-3.812.424-5.295-.451l-.001-.001c-1.247-.731-1.829-1.577-2.507-2.563a51.048 51.048 0 00-.159-.231c-.761-1.099-1.671-2.304-3.678-3.493-2.004-1.19-3.51-1.437-4.851-1.606l-.257-.033c-1.214-.15-2.255-.28-3.5-1.044h-.001c-1.476-.903-2.373-2.434-2.92-4.262-.548-1.827-.731-3.905-.813-5.838-.229-5.357.876-10.364 2.783-14.389 1.909-4.031 4.606-7.046 7.536-8.469 4.215-2.044 8.826-1.913 12.023.006 1.632.98 2.699 2.224 3.728 3.471l.156.19c.967 1.174 1.941 2.355 3.341 3.196 1.305.783 2.625 1.023 3.979 1.27l.416.076c1.507.28 3.126.643 5.026 1.784 2.739 1.644 4.806 4.832 5.458 8.647z"/></g><g clip-path="url(#clip12_90_2674)" stroke="#2D6BB3" stroke-width=".803"><path d="M33.867 172.724h0c1.736-.613 3.991-.556 5.605.125-.852 1.722-2.508 2.914-4.132 3.534l-.001.001c-1.73.665-3.953.65-5.59-.248.769-1.676 2.493-2.843 4.118-3.412zm-16.908 26.328c1.485.88 2.092 1.764 2.652 2.579.483.703.931 1.355 1.878 1.91 2.3 1.357 5.628-.008 8.128-1.206m-12.658-3.283l.205-.346m-.205.346l.204-.346s0 0 0 0m-.204.346c-1.477-.877-2.553-1.01-3.543-1.133-.864-.107-1.663-.206-2.607-.785l6.355 1.572m0 0c1.452.862 2.113 1.736 2.661 2.528l.113.163c.484.705.887 1.289 1.754 1.798l.001.001c1.022.603 2.308.62 3.697.309 1.385-.311 2.807-.935 4.054-1.532m0 0l.173.362m-.173-.362s0 0 0 0l.173.362m-.173-.362c1.64-.786 2.413-1.268 3.864-2.264m-3.69 2.626c1.67-.8 2.46-1.295 3.931-2.305a8.846 8.846 0 01-.24-.321m0 0c.105-.074.216-.149.33-.228-3.631-5.07-.234-12.495 6.315-12.526-.02-.135-.042-.269-.066-.401m-6.58 13.155c-3.789-5.3-.27-13.077 6.58-13.155m0 0c-.486-2.637-1.929-4.826-3.819-5.961-1.339-.804-2.479-1.06-3.55-1.259l-.298-.055c-.964-.175-1.928-.35-2.878-.921-1.017-.61-1.724-1.468-2.412-2.303l-.114-.139c-.734-.89-1.485-1.764-2.632-2.453-2.244-1.347-5.494-1.445-8.475.001m24.178 13.09c.135-.002.271-.001.409.004-.49-2.765-1.998-5.095-4.021-6.309-1.527-.917-2.81-1.151-3.978-1.364-.972-.177-1.864-.34-2.748-.871-.956-.574-1.622-1.382-2.32-2.228-.766-.93-1.57-1.906-2.838-2.667-2.379-1.428-5.775-1.511-8.857-.017m.175.362l-7.302 16.21s0 0 0 0l-.401.017c-.33-7.741 3.192-14.482 7.528-16.589m.175.362l-.175-.362m.175.362v-.001l-.175-.361"/></g><g clip-path="url(#clip13_90_2674)" stroke="#2D6BB3" stroke-width=".803"><path d="M199.392 345.004v-.001c.386-1.8 1.615-3.691 3.04-4.71 1.02 1.628 1.17 3.662.849 5.371l-.001.001c-.338 1.822-1.514 3.709-3.137 4.634-1.025-1.532-1.117-3.613-.751-5.295zm13.584 28.187c1.528-.805 2.598-.86 3.586-.911.852-.043 1.642-.084 2.611-.6 2.36-1.249 2.938-4.8 3.226-7.557m-9.423 9.068l-.187-.356m.187.356l-.187-.356s0 0 0 0m.187.356c-1.519.799-2.196 1.646-2.819 2.425-.544.681-1.046 1.31-2.033 1.811l4.665-4.592m0 0c1.494-.787 2.585-.892 3.546-.945l.198-.01c.855-.045 1.564-.081 2.451-.554l.001-.001c1.049-.555 1.737-1.641 2.198-2.988.46-1.343.673-2.881.817-4.256m0 0l.399.042m-.399-.042s0 0 0 0l.399.042m-.399-.042c.189-1.81.183-2.72.093-4.478m.306 4.52c.193-1.843.185-2.775.094-4.557a9.29 9.29 0 01-.4.037m0 0l-.021-.401c-6.22.441-10.77-6.34-7.369-11.937-.125-.054-.25-.105-.376-.154m7.766 12.492c-6.499.455-11.285-6.613-7.766-12.492m0 0c-2.501-.965-5.122-.882-7.078.135-1.386.72-2.2 1.557-2.931 2.366l-.202.225c-.654.73-1.308 1.459-2.291 1.971-1.053.547-2.154.7-3.225.849l-.179.025c-1.142.16-2.28.342-3.467.959-2.322 1.207-4.107 3.925-4.435 7.221m23.808-13.751c.069-.115.142-.231.217-.346-2.612-1.03-5.386-.964-7.48.124-1.581.822-2.452 1.793-3.244 2.676-.66.736-1.265 1.411-2.18 1.886-.99.514-2.027.659-3.113.81-1.194.167-2.446.341-3.758 1.023-2.462 1.28-4.31 4.13-4.65 7.538m.4.04l9.992 14.707h-.001l-.195.351c-6.769-3.771-10.67-10.3-10.196-15.098m.4.04l-.4-.04m.4.04s0 0 0 0l-.4-.04"/></g><defs><clipPath id="clip0_90_2674"><path fill="#fff" transform="rotate(-33.853 954.818 -2432.428)" d="M0 0h91.921v90.91H0z"/></clipPath><clipPath id="clip1_90_2674"><path fill="#fff" transform="rotate(41.408 853.16 2257.334)" d="M0 0h68.427v67.675H0z"/></clipPath><clipPath id="clip2_90_2674"><path fill="#fff" transform="rotate(-45.793 1118.811 -1568.429)" d="M0 0h91.921v90.91H0z"/></clipPath><clipPath id="clip3_90_2674"><path fill="#fff" transform="rotate(8.136 700.136 10450.216)" d="M0 0h64.712v64.001H0z"/></clipPath><clipPath id="clip4_90_2674"><path fill="#fff" transform="rotate(30.98 615.519 3093.955)" d="M0 0h100.296v99.193H0z"/></clipPath><clipPath id="clip5_90_2674"><path fill="#fff" transform="rotate(30.98 439.255 2781.499)" d="M0 0h39.486v39.053H0z"/></clipPath><clipPath id="clip6_90_2674"><path fill="#fff" transform="rotate(-27.461 1567.555 -3131.337)" d="M0 0h39.486v39.053H0z"/></clipPath><clipPath id="clip7_90_2674"><path fill="#fff" transform="rotate(-34.647 252.07 -28.296)" d="M0 0h84.773v83.842H0z"/></clipPath><clipPath id="clip8_90_2674"><path fill="#fff" transform="rotate(41.408 84.61 287.869)" d="M0 0h63.107v62.413H0z"/></clipPath><clipPath id="clip9_90_2674"><path fill="#fff" transform="rotate(68.993 -129.076 203.897)" d="M0 0h84.773v83.842H0z"/></clipPath><clipPath id="clip10_90_2674"><path fill="#fff" transform="rotate(8.136 -137.371 136.896)" d="M0 0h59.68v59.024H0z"/></clipPath><clipPath id="clip11_90_2674"><path fill="#fff" transform="rotate(30.98 -291.398 468.237)" d="M0 0h51.008v50.448H0z"/></clipPath><clipPath id="clip12_90_2674"><path fill="#fff" transform="rotate(30.98 -278.973 113.33)" d="M0 0h36.416v36.016H0z"/></clipPath><clipPath id="clip13_90_2674"><path fill="#fff" transform="rotate(-27.461 809.009 -193.373)" d="M0 0h36.416v36.016H0z"/></clipPath></defs></svg>