<svg width="180" height="100" fill="none" xmlns="http://www.w3.org/2000/svg"><g clip-path="url(#clip0_36_630)" stroke-width="1.17"><path d="M56.039-265C5.876-238.883-67.301-152.056 41.285-13.684 177.02 159.281 253.738 203.63 141.61 363.29" stroke="url(#paint0_radial_36_630)"/><path d="M56.039-238.09C5.876-211.973-67.301-125.146 41.285 13.226 177.02 186.191 253.738 230.54 141.61 390.2" stroke="url(#paint1_radial_36_630)"/><path d="M56.039-207.67C5.876-181.504-67.301-94.515 41.285 44.114 177.02 217.401 253.738 261.833 141.61 421.79" stroke="url(#paint2_radial_36_630)"/><path d="M56.039-166.72C5.876-140.603-67.301-53.776 41.285 84.596 177.02 257.561 253.738 301.91 141.61 461.57" stroke="url(#paint3_radial_36_630)"/><path d="M56.039-117.58C5.876-91.414-67.301-4.425 41.285 134.204 177.02 307.491 253.738 351.923 141.61 511.88" stroke="url(#paint4_radial_36_630)"/><path d="M56.039-96.52C5.876-70.403-67.301 16.424 41.285 154.796 177.02 327.76 253.738 372.11 141.61 531.77" stroke="url(#paint5_radial_36_630)"/><path d="M56.039-69.61C5.876-43.493-67.301 43.334 41.285 181.706 177.02 354.671 253.738 399.02 141.61 558.68" stroke="url(#paint6_radial_36_630)"/><path d="M56.039-40.36C5.876-14.243-67.301 72.584 41.285 210.956 177.02 383.921 253.738 428.27 141.61 587.93" stroke="url(#paint7_radial_36_630)"/><path d="M56.039-12.28C5.876 13.837-67.301 100.664 41.285 239.036 177.02 412 253.738 456.35 141.61 616.01" stroke="url(#paint8_radial_36_630)"/></g><defs><radialGradient id="paint0_radial_36_630" cx="0" cy="0" r="1" gradientUnits="userSpaceOnUse" gradientTransform="matrix(0 314.145 -105.3 0 90.3 49.145)"><stop stop-color="#296FC6"/><stop offset="1" stop-color="#5157BD" stop-opacity=".3"/></radialGradient><radialGradient id="paint1_radial_36_630" cx="0" cy="0" r="1" gradientUnits="userSpaceOnUse" gradientTransform="matrix(0 314.145 -105.3 0 90.3 76.055)"><stop stop-color="#296FC6"/><stop offset="1" stop-color="#5157BD" stop-opacity=".3"/></radialGradient><radialGradient id="paint2_radial_36_630" cx="0" cy="0" r="1" gradientUnits="userSpaceOnUse" gradientTransform="matrix(0 314.73 -105.3 0 90.3 107.06)"><stop stop-color="#296FC6"/><stop offset="1" stop-color="#5157BD" stop-opacity=".3"/></radialGradient><radialGradient id="paint3_radial_36_630" cx="0" cy="0" r="1" gradientUnits="userSpaceOnUse" gradientTransform="matrix(0 314.145 -105.3 0 90.3 147.425)"><stop stop-color="#296FC6"/><stop offset="1" stop-color="#5157BD" stop-opacity=".3"/></radialGradient><radialGradient id="paint4_radial_36_630" cx="0" cy="0" r="1" gradientUnits="userSpaceOnUse" gradientTransform="matrix(0 314.73 -105.3 0 90.3 197.15)"><stop stop-color="#296FC6"/><stop offset="1" stop-color="#5157BD" stop-opacity=".3"/></radialGradient><radialGradient id="paint5_radial_36_630" cx="0" cy="0" r="1" gradientUnits="userSpaceOnUse" gradientTransform="matrix(0 314.145 -105.3 0 90.3 217.625)"><stop stop-color="#296FC6"/><stop offset="1" stop-color="#5157BD" stop-opacity=".3"/></radialGradient><radialGradient id="paint6_radial_36_630" cx="0" cy="0" r="1" gradientUnits="userSpaceOnUse" gradientTransform="matrix(0 314.145 -105.3 0 90.3 244.535)"><stop stop-color="#296FC6"/><stop offset="1" stop-color="#5157BD" stop-opacity=".3"/></radialGradient><radialGradient id="paint7_radial_36_630" cx="0" cy="0" r="1" gradientUnits="userSpaceOnUse" gradientTransform="matrix(0 314.145 -105.3 0 90.3 273.785)"><stop stop-color="#296FC6"/><stop offset="1" stop-color="#5157BD" stop-opacity=".3"/></radialGradient><radialGradient id="paint8_radial_36_630" cx="0" cy="0" r="1" gradientUnits="userSpaceOnUse" gradientTransform="matrix(0 314.145 -105.3 0 90.3 301.865)"><stop stop-color="#296FC6"/><stop offset="1" stop-color="#5157BD" stop-opacity=".3"/></radialGradient><clipPath id="clip0_36_630"><path d="M0 10C0 4.477 4.477 0 10 0h160c5.523 0 10 4.477 10 10v80c0 5.523-4.477 10-10 10H10c-5.523 0-10-4.477-10-10V10z" fill="#fff"/></clipPath></defs></svg>