<svg width="323" height="91" fill="none" xmlns="http://www.w3.org/2000/svg"><g clip-path="url(#clip0_6_680)" fill="#fff"><path d="M0 45.5C0 70.53.061 91 .143 91c.123 0 16.773-3.116 18.816-3.529l1.063-.206V53.857h12.666v-3.054c0-1.671.061-6.025.143-9.698l.123-6.645H20.02V19.81h7.457c4.107 0 7.457-.04 7.457-.103 0-.227 1.635-17.849 1.737-18.736l.123-.97H0v45.5zM305.594 2.662L289.29 4.024v82.209l.675.103c.592.104 32.157 2.415 32.79 2.394.184 0 .245-2.187.245-10.214V68.302h-13.892V53.444h11.849V35.698h-12.258V23.936l.47-.082c.245-.062 2.329-.145 4.637-.227 2.309-.062 5.312-.165 6.702-.248l2.492-.123V1.238l-.552.02c-.326.021-7.906.64-16.854 1.404zM200.93 5.51c.204 2.063 2.533 33.16 2.493 33.201-.021.041-3.024-7.408-6.681-16.55-3.637-9.14-6.701-16.713-6.783-16.858-.122-.227-5.761.826-15.016 2.807l-.878.185v70.943h18.182l-.102-1.486c-.204-2.765-.96-25.628-.878-26.536.061-.805.674.598 6.476 14.754 3.514 8.605 6.497 15.724 6.579 15.847.122.124 2.962-.061 7.783-.474 4.189-.372 7.621-.702 7.621-.722.02-.021-.082-14.899-.225-33.057-.143-18.16-.266-35.307-.266-38.134l-.02-5.097h-18.407l.122 1.177zm-143.828.082c-12.217.825-18.939 9.265-21.063 26.392-.43 3.55-.613 15.6-.307 19.81 1.022 13.66 4.679 22.533 11.175 27.052 3.494 2.414 8.745 3.714 13.934 3.405 5.904-.33 9.929-2.022 13.545-5.675 2.962-2.992 4.576-5.798 6.129-10.585 2.166-6.686 3.146-16.673 2.656-27.074-.552-11.638-2.288-18.88-5.864-24.431-3.411-5.283-8.805-8.44-15.097-8.832-1.001-.062-2.064-.124-2.35-.165-.286-.02-1.512.02-2.758.103zm2.88 16.22c1.492 1.63 2.126 8.13 2.126 22.037 0 17.127-1.063 24.246-3.392 22.72-1.001-.682-1.757-4.004-2.125-9.513-.265-4.024-.265-22.451 0-26.31.389-5.448 1.083-8.46 2.125-9.182.572-.413.674-.393 1.267.247zm25.824 21.294v37.577h18.735l.122-2.621c.082-1.465.246-6.211.368-10.586.123-4.374.286-8.212.368-8.522.102-.433.981 2.352 3.677 11.762 1.962 6.789 3.616 12.422 3.698 12.505.164.185 19.327-1.342 19.531-1.548.062-.082-2.063-6.83-4.719-15.043l-4.821-14.898 1.021-.908c3.391-2.992 6.19-8.77 6.987-14.486.347-2.497.123-8.687-.408-10.978-2.043-8.976-7.457-15.95-14.363-18.55-3.003-1.115-2.758-1.094-16.957-1.177l-13.239-.082v37.555zm21.064-19.768c1.45.722 2.635 2.58 3.269 5.138.429 1.713.367 7.14-.102 8.873-.879 3.26-2.432 5.159-4.761 5.881l-.47.124V22.698l.675.145c.347.062.98.289 1.389.495zm24.496-7.965v9.595h10.419V80.27h19.613v-52h10.624V9.08l-.45-.082c-.429-.103-39.389-3.24-39.941-3.22-.204 0-.265 2.064-.265 9.596zm92.139 29.921v37.452h20.226V7.841h-20.226v37.453zm43.312-34.853c-11.073.599-20.287 1.094-20.471 1.094-.347.02-.367.619-.367 9.719v9.698h10.419v54.27h19.817v-56.54h11.032v-9.698c0-5.344-.061-9.678-.143-9.678-.102.021-9.214.516-20.287 1.135z"/></g><defs><clipPath id="clip0_6_680"><path fill="#fff" d="M0 0h323v91H0z"/></clipPath></defs></svg>