<svg width="129" height="30" fill="none" xmlns="http://www.w3.org/2000/svg"><path d="M13.43 8.886a14.63 14.63 0 01-4.337 5.704 14.527 14.527 0 00-9.091-3.18V0A14.595 14.595 0 0113.43 8.886z" fill="url(#paint0_linear_6_627)"/><path d="M14.591 14.588A14.599 14.599 0 014.223 28.554c-.135.046-.27.087-.41.123A14.656 14.656 0 010 29.18v-3.69a2.016 2.016 0 000-4.03v-3.695a14.63 14.63 0 004.223-.62 14.612 14.612 0 009.204-8.264 14.453 14.453 0 011.164 5.707z" fill="url(#paint1_linear_6_627)"/><path d="M3.814 27.64v1.041c.14-.036.274-.076.409-.122v-.919h-.41zm0-3.79v1.895h.409v-1.9l-.41.005zm0-3.794v1.895h.409v-1.9l-.41.005zm0-2.784v.889h.409v-1.007c-.135.036-.275.077-.41.113v.005z" fill="#fff"/><path d="M15.751 21.002a14.632 14.632 0 014.34-5.704 14.52 14.52 0 009.09 3.18v11.41a14.595 14.595 0 01-13.43-8.886z" fill="url(#paint2_linear_6_627)"/><path d="M27.166 6.412a2.011 2.011 0 002.01 2.018v3.693a14.63 14.63 0 00-4.222.619 14.516 14.516 0 00-4.872 2.555 14.674 14.674 0 00-4.33 5.707 14.593 14.593 0 019.613-19.79A14.632 14.632 0 0129.178.71v3.685a2.016 2.016 0 00-2.012 2.017z" fill="url(#paint3_linear_6_627)"/><path d="M24.954 11.595v1.145c.135-.04.276-.081.409-.117v-1.028h-.41zm0-3.797V9.7h.409V7.8h-.41zm0-3.788v1.895h.409V4.01h-.41zm0-2.68v.784h.409v-.9c-.14.035-.274.076-.41.117z" fill="#fff"/><path d="M54.902 26.095l-4.624-6.919-4.56 6.919h-7.21l8.13-11.286-7.78-11.031h7.11l4.465 6.44 4.4-6.44h6.823L53.88 14.552l8.29 11.543H54.9z" fill="#424CFD"/><path fill-rule="evenodd" clip-rule="evenodd" d="M90.56 4.936c.176.395.433.75.754 1.04.681.616 1.574.924 2.678.924 1.105 0 1.997-.314 2.678-.94a3.09 3.09 0 001.02-2.375 2.835 2.835 0 00-1.02-2.25C95.99.75 95.098.458 93.992.46c-1.105.001-1.998.31-2.678.925a3.092 3.092 0 00-.754 3.552zm6.46 3.878h-6.057v17.281h6.058V8.814zm-11.382 5.643h-5.58v6.13a8.062 8.062 0 01-3.403.726 6.538 6.538 0 01-3.292-.814 5.71 5.71 0 01-2.232-2.263 6.74 6.74 0 01-.798-3.301c0-1.936.585-3.482 1.754-4.64 1.17-1.158 2.71-1.737 4.624-1.737 2.1.001 3.907.83 5.424 2.486l4.017-3.633a10.814 10.814 0 00-4.146-3.03c-1.658-.701-3.529-1.052-5.611-1.052-2.382 0-4.518.493-6.41 1.483a11.004 11.004 0 00-4.434 4.13c-1.063 1.763-1.594 3.761-1.594 5.994 0 2.233.531 4.231 1.594 5.994a11.065 11.065 0 004.4 4.13c1.87.989 3.975 1.483 6.314 1.483a17.502 17.502 0 004.973-.733 14.537 14.537 0 004.4-2.105v-9.248zm23.499-4.999h4.11v4.528h-3.951v12.117h-6.059V13.986h-2.517V9.458h2.517v-.445c0-2.105.633-3.774 1.899-5.007 1.265-1.233 3.035-1.85 5.308-1.85.75 0 1.498.075 2.233.225a5.32 5.32 0 011.785.67l-1.499 4.272a3.627 3.627 0 00-1.818-.51c-.638 0-1.133.19-1.483.573-.35.382-.525.946-.525 1.69v.382zm17.998 16.668a6.054 6.054 0 001.865-.733l-1.498-4.232a3.204 3.204 0 01-1.849.542 1.725 1.725 0 01-1.324-.527c-.329-.35-.494-.834-.494-1.45v-5.74h3.955V9.458h-3.955V4.955h-6.058v4.503h-2.519v4.524h2.519v5.8c-.007 2.189.596 3.836 1.809 4.942 1.213 1.105 2.946 1.658 5.198 1.658a10.3 10.3 0 002.351-.256z" fill="url(#paint4_linear_6_627)"/><defs><linearGradient id="paint0_linear_6_627" x1="13.066" y1="9.587" x2="1.995" y2="3.976" gradientUnits="userSpaceOnUse"><stop stop-color="#627EFF"/><stop offset=".99" stop-color="#3C2AFF"/></linearGradient><linearGradient id="paint1_linear_6_627" x1="2.419" y1="23.17" x2="15.585" y2="11.051" gradientUnits="userSpaceOnUse"><stop stop-color="#FF8FFF"/><stop offset="1" stop-color="#2885FE"/></linearGradient><linearGradient id="paint2_linear_6_627" x1="28.818" y1="24.885" x2="17.745" y2="19.273" gradientUnits="userSpaceOnUse"><stop stop-color="#627EFF"/><stop offset=".99" stop-color="#3C2AFF"/></linearGradient><linearGradient id="paint3_linear_6_627" x1="17.009" y1="14.996" x2="30.172" y2="2.879" gradientUnits="userSpaceOnUse"><stop stop-color="#FF8FFF"/><stop offset="1" stop-color="#2885FE"/></linearGradient><linearGradient id="paint4_linear_6_627" x1="63.763" y1="14.512" x2="128.846" y2="13.632" gradientUnits="userSpaceOnUse"><stop stop-color="#201E2D"/><stop offset="0" stop-color="#474463"/><stop offset="1" stop-color="#726E91"/></linearGradient></defs></svg>