<svg width="20" height="20" fill="none" xmlns="http://www.w3.org/2000/svg"><g clip-path="url(#clip0_1_3845)"><path d="M4.456 1.697c-.01.007-.018.016-.027.024a1.21 1.21 0 01.192-.16C6.186.544 7.995 0 10 0c1.878 0 3.636.518 5.137 1.42.108.065.405.268.558.453-1.448-1.596-5.704 1.83-5.704 1.83C8.52 2.568 7.166 1.795 6.158 1.52c-.842-.231-1.425-.039-1.702.177zm12.88 1.51c-.044-.05-.092-.096-.136-.146-.366-.402-.816-.5-1.222-.473-.37.116-2.075.73-4.178 2.716 0 0 2.367 2.301 3.816 4.654 1.448 2.353 2.314 4.202 1.782 6.768A9.962 9.962 0 0019.999 10a9.96 9.96 0 00-2.663-6.793zm-3.612 7.756a69.246 69.246 0 00-2.859-3.007c-.276-.275-.567-.56-.874-.857 0 0-.46.461-1.06 1.067-.768.775-1.764 1.787-2.317 2.378-.984 1.05-3.803 4.348-3.961 6.197 0 0-.627-1.467.749-4.85.9-2.21 3.617-5.53 4.751-6.613 0 0-1.037-1.14-2.338-1.929l-.007-.002s-.015-.012-.038-.027c-.626-.373-1.31-.66-1.967-.698-.671.047-1.097.538-1.097.538A9.964 9.964 0 00.002 10c0 5.522 4.476 10 10 10a9.98 9.98 0 007.397-3.273c0-.003-.21-1.321-1.556-3.212-.316-.443-1.472-1.826-2.12-2.552z" fill="#444061"/></g><defs><clipPath id="clip0_1_3845"><path fill="#fff" d="M0 0h20v20H0z"/></clipPath></defs></svg>