<svg width="82" height="82" fill="none" xmlns="http://www.w3.org/2000/svg"><g clip-path="url(#clip0_36_283)"><path d="M18.269 6.957c-.041.031-.073.066-.111.098a4.92 4.92 0 01.787-.653C25.363 2.231 32.778 0 41.006 0a40.772 40.772 0 0121.058 5.822c.446.265 1.663 1.1 2.291 1.858v.003c-5.937-6.545-23.387 7.498-23.387 7.498-6.036-4.652-11.587-7.823-15.72-8.951-3.454-.946-5.845-.156-6.979.727zm52.81 6.188c-.182-.2-.38-.389-.56-.596-1.502-1.647-3.347-2.046-5.01-1.937-1.514.474-8.509 2.995-17.129 11.134 0 0 9.704 9.436 15.647 19.082 5.937 9.646 9.487 17.227 7.304 27.75 6.625-7.282 10.665-16.957 10.665-27.581 0-10.752-4.139-20.538-10.917-27.852zM56.267 44.948c-2.632-2.954-6.549-7.186-11.72-12.329a360.457 360.457 0 00-3.582-3.512s-1.89 1.89-4.35 4.376v-.004c-3.149 3.18-7.23 7.33-9.497 9.752-4.034 4.305-15.592 17.826-16.242 25.407 0 0-2.572-6.013 3.072-19.882 3.687-9.066 14.828-22.68 19.48-27.115 0 0-4.25-4.678-9.585-7.91l-.032-.01s-.06-.047-.156-.107c-2.566-1.53-5.367-2.71-8.063-2.865-2.753.194-4.496 2.208-4.496 2.208C4.216 20.293.006 30.152.006 41c0 22.642 18.355 41 41 41 12.017 0 22.83-5.182 30.331-13.42-.003-.012-.864-5.416-6.38-13.17-1.297-1.816-6.035-7.485-8.69-10.462z" fill="#fff"/></g><defs><clipPath id="clip0_36_283"><path fill="#fff" d="M0 0h82v82H0z"/></clipPath></defs></svg>