<svg width="91" height="90" fill="none" xmlns="http://www.w3.org/2000/svg"><g clip-path="url(#clip0_36_421)" fill="#fff"><path d="M62.559 0c-4.852.332-10.522 3.403-13.827 7.402-3.014 3.629-5.494 9.017-4.527 14.254 5.3.163 10.778-2.981 13.952-7.048 2.968-3.786 5.215-9.14 4.402-14.608z"/><path d="M81.731 30.195c-4.658-5.777-11.204-9.13-17.386-9.13-8.162 0-11.614 3.865-17.285 3.865-5.846 0-10.288-3.853-17.347-3.853-6.933 0-14.315 4.19-18.996 11.357-6.58 10.09-5.454 29.064 5.21 45.224C19.743 83.441 24.84 89.943 31.505 90c5.932.057 7.604-3.763 15.64-3.802 8.037-.045 9.561 3.853 15.482 3.791 6.671-.05 12.046-7.256 15.862-13.038 2.736-4.146 3.754-6.233 5.875-10.913-15.43-5.81-17.904-27.512-2.633-35.842z"/></g><defs><clipPath id="clip0_36_421"><path fill="#fff" d="M0 0h91v90H0z"/></clipPath></defs></svg>