<svg width="20" height="20" fill="none" xmlns="http://www.w3.org/2000/svg"><g clip-path="url(#clip0_108_2158)" fill="#444061"><path d="M13.75 0c-1.067.074-2.313.756-3.04 1.645-.662.806-1.207 2.004-.995 3.167 1.165.037 2.37-.662 3.067-1.566.652-.841 1.146-2.031.967-3.246z"/><path d="M17.963 6.71c-1.024-1.284-2.463-2.029-3.821-2.029-1.794 0-2.553.859-3.8.859-1.284 0-2.26-.856-3.812-.856-1.523 0-3.146.931-4.175 2.524C.91 9.45 1.157 13.666 3.5 17.258c.84 1.284 1.96 2.73 3.424 2.742 1.304.012 1.671-.836 3.438-.845 1.766-.01 2.1.856 3.402.842 1.466-.01 2.648-1.612 3.486-2.897.602-.921.825-1.385 1.292-2.425-3.392-1.291-3.935-6.114-.58-7.965z"/></g><defs><clipPath id="clip0_108_2158"><path fill="#fff" d="M0 0h20v20H0z"/></clipPath></defs></svg>