<svg display="none" xmlns="http://www.w3.org/2000/svg">


    <symbol id="vk" viewBox="0 0 26 26">
        <g clip-path="url(#clip0_11_104)">
            <path d="M23.053 11.7847C23.4227 11.3067 23.7162 10.9232 23.933 10.6339C25.4942 8.55825 26.1709 7.23231 25.9635 6.65423L25.8821 6.51884C25.8281 6.43752 25.6879 6.36284 25.4625 6.29524C25.2368 6.2277 24.9481 6.2169 24.5963 6.2615L20.6976 6.28899C20.6074 6.28001 20.5171 6.28211 20.4268 6.29524C20.3366 6.30897 20.278 6.32274 20.2508 6.33588C20.2235 6.34965 20.2011 6.36069 20.1832 6.36968L20.1291 6.41031C20.084 6.43723 20.0344 6.48475 19.9803 6.55264C19.9262 6.62048 19.8807 6.69911 19.8449 6.78966C19.4207 7.88156 18.938 8.89697 18.3964 9.83555C18.0625 10.3951 17.7555 10.8806 17.4761 11.2906C17.1963 11.7016 16.9616 12.0039 16.7721 12.1975C16.5826 12.3915 16.411 12.5475 16.2577 12.6644C16.1041 12.7822 15.9869 12.8315 15.9059 12.8136C15.8246 12.7957 15.7478 12.7777 15.6757 12.7592C15.5493 12.6782 15.4477 12.5679 15.3712 12.4277C15.2944 12.2882 15.2427 12.112 15.2154 11.8998C15.1885 11.6879 15.1724 11.505 15.1682 11.3513C15.1634 11.198 15.1658 10.9816 15.1751 10.7015C15.1841 10.4217 15.1885 10.2325 15.1885 10.133C15.1885 9.79042 15.1954 9.41801 15.2089 9.01629C15.2224 8.61486 15.2337 8.29651 15.2427 8.06183C15.2517 7.82749 15.2561 7.57909 15.2561 7.31725C15.2561 7.056 15.2403 6.85032 15.2085 6.70121C15.1768 6.55264 15.1293 6.40826 15.0665 6.26809C15.0032 6.1285 14.9108 6.01998 14.7888 5.94349C14.6669 5.86666 14.5159 5.806 14.3354 5.76053C13.8568 5.65201 13.2477 5.59403 12.5079 5.58451C10.8292 5.56717 9.75076 5.67535 9.27251 5.90969C9.08301 6.00923 8.91143 6.14432 8.75811 6.3159C8.59552 6.51469 8.5731 6.62316 8.69057 6.6405C9.23217 6.72182 9.61542 6.91611 9.84107 7.22279L9.92239 7.38509C9.98545 7.50284 10.0485 7.71032 10.1119 8.00801C10.175 8.30575 10.2156 8.63513 10.2339 8.99621C10.279 9.65498 10.279 10.2188 10.2339 10.6884C10.1887 11.1579 10.146 11.5232 10.1054 11.7845C10.0647 12.0463 10.0037 12.2582 9.92269 12.4205C9.84136 12.5834 9.7873 12.6827 9.76009 12.7188C9.73289 12.7546 9.71047 12.7774 9.69255 12.7864C9.57508 12.8312 9.45342 12.8539 9.32702 12.8539C9.20057 12.8539 9.04721 12.7905 8.86669 12.6641C8.68612 12.5383 8.49872 12.3643 8.30501 12.1431C8.11072 11.9222 7.89221 11.6129 7.64829 11.2156C7.40467 10.819 7.15177 10.3494 6.89023 9.80805L6.67381 9.41527C6.53843 9.16301 6.35337 8.79504 6.11873 8.31229C5.8841 7.82954 5.67633 7.36267 5.49611 6.91103C5.42377 6.72182 5.31554 6.57745 5.17121 6.47791L5.10367 6.43727C5.05854 6.40138 4.9862 6.36284 4.88696 6.32245C4.78742 6.28181 4.68402 6.25251 4.5755 6.23429L0.866346 6.2612C0.487338 6.2612 0.230286 6.34731 0.0948985 6.51884L0.0407824 6.59987C0.0134313 6.64529 0 6.71762 0 6.81658C0 6.91611 0.0272046 7.03778 0.0813207 7.18186C0.622921 8.45461 1.2118 9.68195 1.84786 10.8638C2.48426 12.0463 3.03695 12.9986 3.50622 13.7205C3.97548 14.4429 4.45374 15.1238 4.94127 15.7647C5.4288 16.4055 5.7513 16.8159 5.90911 16.9962C6.06691 17.177 6.19097 17.3125 6.28128 17.4024L6.61965 17.7276C6.83606 17.944 7.15441 18.2034 7.57411 18.5059C7.99375 18.8084 8.45828 19.1062 8.96852 19.3991C9.47818 19.6926 10.0718 19.9314 10.7485 20.1168C11.4252 20.3021 12.084 20.3765 12.7249 20.34H14.2816C14.5976 20.3131 14.8366 20.2142 14.999 20.0423L15.0531 19.9747C15.0889 19.9209 15.123 19.8373 15.1547 19.7245C15.1861 19.6119 15.2023 19.4875 15.2023 19.3524C15.1929 18.9645 15.2226 18.6141 15.2901 18.3033C15.3577 17.9918 15.4345 17.7575 15.5203 17.5991C15.6061 17.4415 15.7029 17.3082 15.8114 17.1997C15.9197 17.0912 15.9961 17.0263 16.0416 17.0036C16.0867 16.9815 16.1229 16.9656 16.1498 16.9561C16.3662 16.884 16.6212 16.954 16.9147 17.1659C17.2079 17.3784 17.4833 17.6396 17.7406 17.9511C17.9976 18.2626 18.3067 18.612 18.6678 19.0003C19.0286 19.3882 19.3445 19.677 19.6153 19.8665L19.8862 20.0294C20.0666 20.1373 20.301 20.2365 20.5901 20.3271C20.8788 20.4171 21.1317 20.4398 21.3481 20.3947L24.8136 20.3403C25.1565 20.3403 25.4228 20.2841 25.6124 20.1711C25.8018 20.059 25.9146 19.9341 25.9507 19.799C25.9866 19.6636 25.989 19.5109 25.9576 19.3389C25.926 19.1676 25.8943 19.0481 25.8629 18.9805C25.8313 18.913 25.8019 18.8562 25.7746 18.8114C25.3234 17.9992 24.4616 17.0017 23.1891 15.8196L23.1619 15.7927L23.1485 15.7789L23.135 15.7658H23.1214C22.5437 15.2152 22.1784 14.8451 22.025 14.6553C21.7453 14.2949 21.6819 13.9293 21.8356 13.5593C21.9432 13.2787 22.3491 12.6874 23.053 11.7847Z"/>
        </g>
        <defs>
            <clipPath id="clip0_11_104">
                <rect width="26" height="26" fill="white"/>
            </clipPath>
        </defs>
    </symbol>

    <symbol id="telegram" viewBox="0 0 26 26">
        <g clip-path="url(#clip0_11_105)">
            <path d="M10.2017 16.4461L9.77162 22.4954C10.3869 22.4954 10.6534 22.2311 10.973 21.9137L13.8579 19.1566L19.8358 23.5343C20.9321 24.1453 21.7045 23.8236 22.0003 22.5257L25.9241 4.13941L25.9252 4.13833C26.2729 2.51766 25.3391 1.88391 24.2709 2.2815L1.20678 11.1117C-0.367301 11.7227 -0.343468 12.6002 0.939198 12.9978L6.83578 14.8319L20.5324 6.26167C21.1769 5.83483 21.763 6.071 21.2809 6.49783L10.2017 16.4461Z"/>
        </g>
        <defs>
            <clipPath id="clip0_11_105">
                <rect width="26" height="26" fill="white"/>
            </clipPath>
        </defs>
    </symbol>

    <symbol id="user" viewBox="0 0 24 24">
        <g clip-path="url(#clip0_1_3602)">
            <path d="M12 12C13.1867 12 14.3467 11.6481 15.3334 10.9888C16.3201 10.3295 17.0892 9.39246 17.5433 8.2961C17.9974 7.19975 18.1162 5.99335 17.8847 4.82946C17.6532 3.66558 17.0818 2.59648 16.2426 1.75736C15.4035 0.918247 14.3344 0.346802 13.1705 0.115291C12.0067 -0.11622 10.8003 0.00259972 9.7039 0.456726C8.60754 0.910851 7.67047 1.67989 7.01118 2.66658C6.35189 3.65328 6 4.81331 6 6C6.00159 7.59081 6.63424 9.11602 7.75911 10.2409C8.88399 11.3658 10.4092 11.9984 12 12ZM12 2C12.7911 2 13.5645 2.2346 14.2223 2.67412C14.8801 3.11365 15.3928 3.73836 15.6955 4.46927C15.9983 5.20017 16.0775 6.00444 15.9231 6.78036C15.7688 7.55629 15.3878 8.26902 14.8284 8.82843C14.269 9.38784 13.5563 9.7688 12.7804 9.92314C12.0044 10.0775 11.2002 9.99827 10.4693 9.69552C9.73836 9.39277 9.11365 8.88008 8.67412 8.22228C8.2346 7.56449 8 6.79113 8 6C8 4.93914 8.42143 3.92172 9.17157 3.17158C9.92172 2.42143 10.9391 2 12 2V2Z"/>
            <path d="M12 14C9.61386 14.0026 7.32622 14.9517 5.63896 16.639C3.95171 18.3262 3.00265 20.6139 3 23C3 23.2652 3.10536 23.5196 3.29289 23.7071C3.48043 23.8946 3.73478 24 4 24C4.26522 24 4.51957 23.8946 4.70711 23.7071C4.89464 23.5196 5 23.2652 5 23C5 21.1435 5.7375 19.363 7.05025 18.0503C8.36301 16.7375 10.1435 16 12 16C13.8565 16 15.637 16.7375 16.9497 18.0503C18.2625 19.363 19 21.1435 19 23C19 23.2652 19.1054 23.5196 19.2929 23.7071C19.4804 23.8946 19.7348 24 20 24C20.2652 24 20.5196 23.8946 20.7071 23.7071C20.8946 23.5196 21 23.2652 21 23C20.9974 20.6139 20.0483 18.3262 18.361 16.639C16.6738 14.9517 14.3861 14.0026 12 14V14Z"/>
        </g>
        <defs>
            <clipPath id="clip0_1_3602">
                <rect width="24" height="24" fill="white"/>
            </clipPath>
        </defs>
    </symbol>

    <symbol id="cart" viewBox="0 0 24 24">
        <g clip-path="url(#clip0_1_3596)">
            <path d="M22.713 4.077C22.4317 3.73944 22.0796 3.46795 21.6815 3.28182C21.2835 3.09568 20.8494 2.99946 20.41 3H4.242L4.2 2.649C4.11405 1.91942 3.76338 1.24673 3.21449 0.758478C2.6656 0.270223 1.95663 0.000341793 1.222 0L1 0C0.734784 0 0.48043 0.105357 0.292893 0.292893C0.105357 0.48043 0 0.734784 0 1C0 1.26522 0.105357 1.51957 0.292893 1.70711C0.48043 1.89464 0.734784 2 1 2H1.222C1.46693 2.00003 1.70334 2.08996 1.88637 2.25272C2.06941 2.41547 2.18634 2.63975 2.215 2.883L3.591 14.583C3.73385 15.7998 4.31848 16.9218 5.23391 17.736C6.14934 18.5502 7.33185 19 8.557 19H19C19.2652 19 19.5196 18.8946 19.7071 18.7071C19.8946 18.5196 20 18.2652 20 18C20 17.7348 19.8946 17.4804 19.7071 17.2929C19.5196 17.1054 19.2652 17 19 17H8.557C7.93806 16.9983 7.3348 16.8051 6.82994 16.4471C6.32507 16.089 5.94331 15.5836 5.737 15H17.657C18.8293 15.0001 19.9643 14.5882 20.8638 13.8364C21.7633 13.0846 22.37 12.0407 22.578 10.887L23.363 6.533C23.4414 6.10101 23.4237 5.65707 23.3114 5.23264C23.1991 4.80821 22.9948 4.41368 22.713 4.077ZM21.4 6.178L20.614 10.532C20.4891 11.225 20.1245 11.852 19.5839 12.3032C19.0433 12.7544 18.3612 13.0011 17.657 13H5.419L4.478 5H20.41C20.5569 4.99912 20.7022 5.03062 20.8355 5.09226C20.9689 5.15389 21.087 5.24415 21.1815 5.35661C21.276 5.46907 21.3446 5.60097 21.3824 5.74294C21.4201 5.8849 21.4262 6.03345 21.4 6.178Z"/>
            <path d="M7 24C8.10457 24 9 23.1046 9 22C9 20.8954 8.10457 20 7 20C5.89543 20 5 20.8954 5 22C5 23.1046 5.89543 24 7 24Z"/>
            <path d="M17 24C18.1046 24 19 23.1046 19 22C19 20.8954 18.1046 20 17 20C15.8954 20 15 20.8954 15 22C15 23.1046 15.8954 24 17 24Z"/>
        </g>
        <defs>
            <clipPath id="clip0_1_3596">
                <rect width="24" height="24" fill="white"/>
            </clipPath>
        </defs>
    </symbol>

    <symbol id="email" viewBox="0 0 14 14">
        <g clip-path="url(#clip0_103_2383)">
            <path d="M13.9732 3.23285L9.06267 8.14335C8.51513 8.6895 7.77335 8.99621 7 8.99621C6.22665 8.99621 5.48487 8.6895 4.93733 8.14335L0.0268333 3.23285C0.0186667 3.32502 0 3.40843 0 3.50002V10.5C0.00092625 11.2733 0.308514 12.0146 0.855295 12.5614C1.40208 13.1082 2.1434 13.4158 2.91667 13.4167H11.0833C11.8566 13.4158 12.5979 13.1082 13.1447 12.5614C13.6915 12.0146 13.9991 11.2733 14 10.5V3.50002C14 3.40843 13.9813 3.32502 13.9732 3.23285Z"/>
            <path d="M8.23779 7.31848L13.566 1.98973C13.3078 1.56175 12.9438 1.2075 12.5089 0.961156C12.0741 0.71481 11.5831 0.584678 11.0833 0.583313H2.91663C2.41684 0.584678 1.92584 0.71481 1.49098 0.961156C1.05612 1.2075 0.692072 1.56175 0.43396 1.98973L5.76213 7.31848C6.09088 7.64591 6.53597 7.82975 6.99996 7.82975C7.46395 7.82975 7.90904 7.64591 8.23779 7.31848Z"/>
        </g>
        <defs>
            <clipPath id="clip0_103_2383">
                <rect width="14" height="14" fill="white"/>
            </clipPath>
        </defs>
    </symbol>

    <symbol id="close" viewBox="0 0 20 20">
        <g clip-path="url(#clip0_108_2155)">
            <path d="M19.7557 0.243989C19.5994 0.0877629 19.3875 0 19.1665 0C18.9455 0 18.7336 0.0877629 18.5773 0.243989L9.99982 8.82149L1.42232 0.243989C1.26605 0.0877629 1.05413 0 0.833155 0C0.612185 0 0.400262 0.0877629 0.243989 0.243989C0.0877629 0.400262 0 0.612185 0 0.833155C0 1.05413 0.0877629 1.26605 0.243989 1.42232L8.82149 9.99982L0.243989 18.5773C0.0877629 18.7336 0 18.9455 0 19.1665C0 19.3875 0.0877629 19.5994 0.243989 19.7557C0.400262 19.9119 0.612185 19.9996 0.833155 19.9996C1.05413 19.9996 1.26605 19.9119 1.42232 19.7557L9.99982 11.1782L18.5773 19.7557C18.7336 19.9119 18.9455 19.9996 19.1665 19.9996C19.3875 19.9996 19.5994 19.9119 19.7557 19.7557C19.9119 19.5994 19.9996 19.3875 19.9996 19.1665C19.9996 18.9455 19.9119 18.7336 19.7557 18.5773L11.1782 9.99982L19.7557 1.42232C19.9119 1.26605 19.9996 1.05413 19.9996 0.833155C19.9996 0.612185 19.9119 0.400262 19.7557 0.243989Z"/>
        </g>
        <defs>
            <clipPath id="clip0_108_2155">
                <rect width="20" height="20" fill="white"/>
            </clipPath>
        </defs>
    </symbol>

    <symbol id="brand" viewBox="0 0 17 16">
        <g clip-path="url(#clip0_21_2352)">
            <path d="M11.1215 0C10.259 0.0589997 9.25095 0.604996 8.6635 1.31599C8.12761 1.96099 7.68677 2.91898 7.85866 3.84998C8.80101 3.87898 9.7747 3.31998 10.3389 2.59698C10.8667 1.92399 11.2661 0.971994 11.1215 0Z"/>
            <path d="M14.5299 5.36799C13.7018 4.34099 12.5381 3.745 11.439 3.745C9.98806 3.745 9.37432 4.43199 8.36624 4.43199C7.32683 4.43199 6.53716 3.747 5.28237 3.747C4.04984 3.747 2.73742 4.49199 1.90528 5.76598C0.735433 7.55997 0.935632 10.933 2.83145 13.8059C3.50991 14.8339 4.41586 15.9899 5.60087 15.9999C6.65545 16.0099 6.95272 15.3309 8.38141 15.3239C9.8101 15.3159 10.0811 16.0089 11.1336 15.9979C12.3197 15.9889 13.2752 14.7079 13.9536 13.6799C14.44 12.9429 14.6209 12.5719 14.9981 11.7399C12.255 10.707 11.8151 6.84898 14.5299 5.36799Z"/>
        </g>
        <defs>
            <clipPath id="clip0_21_2352">
                <rect width="16.1778" height="16" fill="white"/>
            </clipPath>
        </defs>
    </symbol>

    <symbol id="brand2" viewBox="0 0 17 16">
        <path d="M3.24351 0.203907C2.83132 -0.0442202 2.34007 -0.0664079 1.91163 0.140157L9.09513 7.33898L11.4439 4.97927L3.24351 0.203907ZM1.25162 0.806413C1.16099 0.99829 1.11224 1.21173 1.11224 1.43142V14.5997C1.11224 14.8203 1.16131 15.0306 1.25287 15.2184L8.43357 8.00367L1.25162 0.806413ZM9.0961 8.66743L1.92416 15.8734C2.11447 15.9616 2.31697 16 2.51916 16C2.76885 16 3.01792 15.9403 3.24355 15.8047L11.4455 11.0221L9.0961 8.66743ZM14.5671 6.79803C14.5643 6.79616 14.5612 6.79428 14.5583 6.79272L12.2814 5.46677L9.75736 8.00273L12.283 10.5337C12.283 10.5337 14.5643 9.20368 14.5671 9.20212C14.9905 8.94493 15.2434 8.49555 15.2434 7.99992C15.2434 7.50429 14.9905 7.05491 14.5671 6.79803Z"/>
    </symbol>

    <symbol id="brand3" viewBox="0 0 17 16">
        <path d="M3.74252 1.35738C3.73443 1.36359 3.72822 1.37043 3.72075 1.37665C3.76615 1.32877 3.83143 1.27716 3.87434 1.24918C5.12663 0.435256 6.57354 0 8.17902 0C9.68065 0 11.0871 0.414737 12.2878 1.13602C12.3749 1.18763 12.6124 1.35054 12.7349 1.49852V1.49915C11.5765 0.22198 8.17156 2.96223 8.17156 2.96223C6.99388 2.05441 5.91071 1.43572 5.10425 1.21561C4.43022 1.03093 3.96388 1.18514 3.74252 1.35738ZM14.0469 2.5649C14.0114 2.52573 13.9729 2.48904 13.9374 2.44862C13.6446 2.12716 13.2846 2.04943 12.96 2.07057C12.6646 2.16322 11.2998 2.65506 9.61785 4.24312C9.61785 4.24312 11.5112 6.08425 12.6709 7.96642C13.8293 9.84859 14.5219 11.3278 14.096 13.381C15.3887 11.9602 16.1772 10.0724 16.1772 7.99938C16.1772 5.90145 15.3694 3.99192 14.0469 2.5649ZM11.1568 8.7704C10.6432 8.194 9.879 7.36826 8.86983 6.36468C8.64909 6.14519 8.41592 5.91637 8.17093 5.67947C8.17093 5.67947 7.80221 6.04819 7.32218 6.53319V6.53257C6.70785 7.15312 5.91133 7.96269 5.46924 8.43526C4.68205 9.2753 2.4268 11.9136 2.29996 13.3928C2.29996 13.3928 1.79817 12.2195 2.89936 9.51345C3.61878 7.74444 5.79257 5.08814 6.70039 4.2226C6.70039 4.2226 5.87092 3.30981 4.83003 2.67931L4.82382 2.67744C4.82382 2.67744 4.812 2.66812 4.79335 2.6563C4.2928 2.35784 3.74625 2.12778 3.22021 2.09731C2.68298 2.13524 2.34286 2.52821 2.34286 2.52821C1.00041 3.95958 0.179016 5.88341 0.179016 8C0.179016 12.4178 3.76055 16 8.17902 16C10.5238 16 12.6335 14.989 14.0973 13.3816C14.0966 13.3791 13.9287 12.3246 12.8524 10.8118C12.5993 10.4573 11.6747 9.35116 11.1568 8.7704Z"/>
    </symbol>

    <symbol id="brand4" viewBox="0 0 17 16">
        <g clip-path="url(#clip0_21_2392)">
            <path d="M13.1293 8.42133C12.8337 8.42133 12.5415 8.46458 12.2608 8.54986L9.5722 9.29417V11.9072L13.64 10.7811L13.8881 11.6773L9.5722 12.8721V15.4851L13.992 14.2616L14.0042 14.258C14.602 14.0749 15.139 13.6975 15.5162 13.1953C15.9066 12.6755 16.1129 12.0565 16.1129 11.4049C16.1129 9.75976 14.7745 8.42133 13.1293 8.42133Z"/>
            <path d="M10.918 1.66178L4.91211 0V14.9674L8.64227 16V4.43359C8.64227 4.17722 8.85086 3.96863 9.10723 3.96863C9.36361 3.96863 9.5722 4.17722 9.5722 4.43359V8.05078H10.0372C10.1213 8.05078 10.2047 8.04756 10.2873 8.04125C10.3423 8.03706 10.397 8.0315 10.4512 8.02456C10.5325 8.01422 10.613 8.00081 10.6923 7.9845C10.7452 7.97366 10.7977 7.9615 10.8496 7.94809C10.8756 7.94141 10.9015 7.93437 10.9272 7.92703C12.265 7.54625 13.2541 6.32925 13.291 4.87975C13.2917 4.85187 13.292 4.82394 13.292 4.79588C13.292 3.34359 12.3165 2.055 10.918 1.66178Z"/>
            <path d="M3.98215 8.22858L2.50224 8.63823C2.21768 8.70945 1.9449 8.82258 1.69134 8.97461C0.280369 9.82061 -0.179287 11.6568 0.666744 13.0678C1.00181 13.6266 1.49715 14.0515 2.09918 14.2965C2.45809 14.4425 2.84468 14.5166 3.23071 14.5165C3.47043 14.5165 3.70999 14.488 3.94246 14.4304L3.98212 14.4194V11.8066L2.7149 12.1574L2.46678 11.2611L3.98212 10.8416V8.22858H3.98215Z"/>
        </g>
        <defs>
            <clipPath id="clip0_21_2392">
                <rect width="16" height="16" fill="white" transform="translate(0.177795)"/>
            </clipPath>
        </defs>
    </symbol>

    <symbol id="brand5" viewBox="0 0 46 46">
        <g clip-path="url(#clip0_64_4175)">
            <path d="M14.1499 22.64C14.1499 34.8195 14.1801 44.78 14.2203 44.78C14.2806 44.78 22.4726 43.2638 23.4778 43.063L24.0005 42.9626V34.8295V26.7065H27.1165H30.2325V25.2205C30.2325 24.4072 30.2626 22.2885 30.3028 20.5013L30.3632 17.2681H27.1868H24.0005V13.7036V10.1392H27.6693C29.6897 10.1392 31.3382 10.1191 31.3382 10.0889C31.3382 9.9785 32.1423 1.40364 32.1925 0.971888L32.2529 0.49997H23.1964H14.1499V22.64Z" fill="#444061"/>
        </g>
        <defs>
            <clipPath id="clip0_64_4175">
                <rect width="45.5" height="45" fill="white" transform="translate(0.5 0.5)"/>
            </clipPath>
        </defs>
    </symbol>


    <symbol id="selectArrow" viewBox="0 0 16 16">
        <path d="M12.4733 5.47332C12.4113 5.41084 12.3376 5.36124 12.2563 5.32739C12.1751 5.29355 12.088 5.27612 12 5.27612C11.912 5.27612 11.8248 5.29355 11.7436 5.32739C11.6623 5.36124 11.5886 5.41084 11.5266 5.47332L8.47329 8.52666C8.41132 8.58914 8.33758 8.63874 8.25634 8.67258C8.1751 8.70643 8.08797 8.72385 7.99996 8.72385C7.91195 8.72385 7.82481 8.70643 7.74357 8.67258C7.66233 8.63874 7.5886 8.58914 7.52663 8.52666L4.47329 5.47332C4.41132 5.41084 4.33758 5.36124 4.25634 5.32739C4.1751 5.29355 4.08797 5.27612 3.99996 5.27612C3.91195 5.27612 3.82481 5.29355 3.74357 5.32739C3.66233 5.36124 3.5886 5.41084 3.52663 5.47332C3.40246 5.59823 3.33276 5.7672 3.33276 5.94332C3.33276 6.11945 3.40246 6.28841 3.52663 6.41332L6.58663 9.47332C6.96163 9.84786 7.46996 10.0582 7.99996 10.0582C8.52996 10.0582 9.03829 9.84786 9.41329 9.47332L12.4733 6.41332C12.5975 6.28841 12.6672 6.11945 12.6672 5.94332C12.6672 5.7672 12.5975 5.59823 12.4733 5.47332V5.47332Z"/>
    </symbol>

    <symbol id="more" viewBox="0 0 20 20" >
        <path d="M1.66667 11.6666C2.58714 11.6666 3.33333 10.9204 3.33333 9.99992C3.33333 9.07944 2.58714 8.33325 1.66667 8.33325C0.746192 8.33325 0 9.07944 0 9.99992C0 10.9204 0.746192 11.6666 1.66667 11.6666Z"/>
        <path d="M9.99998 11.6666C10.9205 11.6666 11.6666 10.9204 11.6666 9.99992C11.6666 9.07944 10.9205 8.33325 9.99998 8.33325C9.0795 8.33325 8.33331 9.07944 8.33331 9.99992C8.33331 10.9204 9.0795 11.6666 9.99998 11.6666Z"/>
        <path d="M18.3334 11.6666C19.2538 11.6666 20 10.9204 20 9.99992C20 9.07944 19.2538 8.33325 18.3334 8.33325C17.4129 8.33325 16.6667 9.07944 16.6667 9.99992C16.6667 10.9204 17.4129 11.6666 18.3334 11.6666Z"/>
    </symbol>

    <symbol id="calendar" viewBox="0 0 14 14">
        <path d="M0 4.66667V4.08333C0 2.47508 1.30842 1.16667 2.91667 1.16667H3.5V0.583333C3.5 0.261333 3.76075 0 4.08333 0C4.40592 0 4.66667 0.261333 4.66667 0.583333V1.16667H9.33333V0.583333C9.33333 0.261333 9.59408 0 9.91667 0C10.2392 0 10.5 0.261333 10.5 0.583333V1.16667H11.0833C12.6916 1.16667 14 2.47508 14 4.08333V4.66667H0ZM14 5.83333V11.0833C14 12.6916 12.6916 14 11.0833 14H2.91667C1.30842 14 0 12.6916 0 11.0833V5.83333H14ZM7 11.0833C7 10.7613 6.73925 10.5 6.41667 10.5H3.5C3.17742 10.5 2.91667 10.7613 2.91667 11.0833C2.91667 11.4053 3.17742 11.6667 3.5 11.6667H6.41667C6.73925 11.6667 7 11.4053 7 11.0833ZM11.0833 8.75C11.0833 8.428 10.8226 8.16667 10.5 8.16667H3.5C3.17742 8.16667 2.91667 8.428 2.91667 8.75C2.91667 9.072 3.17742 9.33333 3.5 9.33333H10.5C10.8226 9.33333 11.0833 9.072 11.0833 8.75Z"/>
    </symbol>

    <svg width="16" height="17" viewBox="0 0 16 17" fill="none" xmlns="http://www.w3.org/2000/svg">
        <g clip-path="url(#clip0_90_3633)">
            <path d="M0.884795 8.76672L3.25813 10.5001L2.3568 13.2914C2.21114 13.7243 2.20929 14.1927 2.35153 14.6268C2.49378 15.0608 2.77249 15.4373 3.14613 15.7001C3.51336 15.9712 3.95839 16.1165 4.4149 16.1142C4.87141 16.1119 5.31496 15.9622 5.67946 15.6874L8.00013 13.9794L10.3215 15.6854C10.688 15.955 11.1307 16.1015 11.5857 16.1037C12.0408 16.1059 12.4848 15.9638 12.854 15.6977C13.2232 15.4317 13.4985 15.0554 13.6403 14.623C13.7822 14.1907 13.7833 13.7244 13.6435 13.2914L12.7421 10.5001L15.1155 8.76672C15.4816 8.49906 15.7537 8.12255 15.893 7.69098C16.0324 7.2594 16.0317 6.79484 15.8912 6.36364C15.7508 5.93244 15.4776 5.55667 15.1108 5.28999C14.744 5.02331 14.3023 4.87936 13.8488 4.87872H10.9335L10.0488 2.12138C9.90968 1.68736 9.63631 1.30873 9.26811 1.04009C8.89991 0.771462 8.45591 0.626709 8.00013 0.626709C7.54435 0.626709 7.10035 0.771462 6.73215 1.04009C6.36395 1.30873 6.09058 1.68736 5.95146 2.12138L5.0668 4.87872H2.15413C1.70062 4.87936 1.25892 5.02331 0.892115 5.28999C0.525307 5.55667 0.252156 5.93244 0.111676 6.36364C-0.0288034 6.79484 -0.0294251 7.2594 0.1099 7.69098C0.249224 8.12255 0.521369 8.49906 0.887462 8.76672H0.884795Z" fill="#FF8A00"/>
            <path d="M0.884795 8.76672L3.25813 10.5001L2.3568 13.2914C2.21114 13.7243 2.20929 14.1927 2.35153 14.6268C2.49378 15.0608 2.77249 15.4373 3.14613 15.7001C3.51336 15.9712 3.95839 16.1165 4.4149 16.1142C4.87141 16.1119 5.31496 15.9622 5.67946 15.6874L8.00013 13.9794L10.3215 15.6854C10.688 15.955 11.1307 16.1015 11.5857 16.1037C12.0408 16.1059 12.4848 15.9638 12.854 15.6977C13.2232 15.4317 13.4985 15.0554 13.6403 14.623C13.7822 14.1907 13.7833 13.7244 13.6435 13.2914L12.7421 10.5001L15.1155 8.76672C15.4816 8.49906 15.7537 8.12255 15.893 7.69098C16.0324 7.2594 16.0317 6.79484 15.8912 6.36364C15.7508 5.93244 15.4776 5.55667 15.1108 5.28999C14.744 5.02331 14.3023 4.87936 13.8488 4.87872H10.9335L10.0488 2.12138C9.90968 1.68736 9.63631 1.30873 9.26811 1.04009C8.89991 0.771462 8.45591 0.626709 8.00013 0.626709C7.54435 0.626709 7.10035 0.771462 6.73215 1.04009C6.36395 1.30873 6.09058 1.68736 5.95146 2.12138L5.0668 4.87872H2.15413C1.70062 4.87936 1.25892 5.02331 0.892115 5.28999C0.525307 5.55667 0.252156 5.93244 0.111676 6.36364C-0.0288034 6.79484 -0.0294251 7.2594 0.1099 7.69098C0.249224 8.12255 0.521369 8.49906 0.887462 8.76672H0.884795Z" fill="url(#paint0_linear_90_3633)"/>
        </g>
        <defs>
            <linearGradient id="paint0_linear_90_3633" x1="0.00585938" y1="8.37048" x2="15.9971" y2="8.37048" gradientUnits="userSpaceOnUse">
                <stop stop-color="#434DFE"/>
                <stop offset="1" stop-color="#FF9DFF"/>
            </linearGradient>
            <clipPath id="clip0_90_3633">
                <rect width="16" height="16" fill="white" transform="translate(0 0.5)"/>
            </clipPath>
        </defs>
    </svg>

    <symbol id="cart2" viewBox="0 0 16 16">
        <g clip-path="url(#clip0_46_1124)">
            <path d="M15.142 2.718C14.9545 2.49296 14.7197 2.31197 14.4544 2.18788C14.189 2.06379 13.8996 1.99964 13.6067 2H2.828L2.8 1.766C2.7427 1.27961 2.50892 0.831155 2.14299 0.505652C1.77706 0.180149 1.30442 0.000227862 0.814667 0L0.666667 0C0.489856 0 0.320286 0.0702379 0.195262 0.195262C0.0702379 0.320286 0 0.489856 0 0.666667C0 0.843478 0.0702379 1.01305 0.195262 1.13807C0.320286 1.2631 0.489856 1.33333 0.666667 1.33333H0.814667C0.977956 1.33336 1.13556 1.3933 1.25758 1.50181C1.3796 1.61032 1.45756 1.75983 1.47667 1.922L2.394 9.722C2.48923 10.5332 2.87899 11.2812 3.48927 11.824C4.09956 12.3668 4.8879 12.6667 5.70467 12.6667H12.6667C12.8435 12.6667 13.013 12.5964 13.1381 12.4714C13.2631 12.3464 13.3333 12.1768 13.3333 12C13.3333 11.8232 13.2631 11.6536 13.1381 11.5286C13.013 11.4036 12.8435 11.3333 12.6667 11.3333H5.70467C5.29204 11.3322 4.88987 11.2034 4.55329 10.9647C4.21671 10.726 3.96221 10.389 3.82467 10H11.7713C12.5529 10 13.3096 9.72549 13.9092 9.22429C14.5089 8.7231 14.9134 8.02713 15.052 7.258L15.5753 4.35533C15.6276 4.06734 15.6158 3.77138 15.5409 3.48843C15.4661 3.20547 15.3299 2.94245 15.142 2.718Z"/>
            <path d="M4.66683 16C5.40321 16 6.00016 15.403 6.00016 14.6667C6.00016 13.9303 5.40321 13.3333 4.66683 13.3333C3.93045 13.3333 3.3335 13.9303 3.3335 14.6667C3.3335 15.403 3.93045 16 4.66683 16Z"/>
            <path d="M11.3333 16C12.0697 16 12.6667 15.403 12.6667 14.6667C12.6667 13.9303 12.0697 13.3333 11.3333 13.3333C10.597 13.3333 10 13.9303 10 14.6667C10 15.403 10.597 16 11.3333 16Z"/>
        </g>
        <defs>
            <clipPath id="clip0_46_1124">
                <rect width="16" height="16" fill="white"/>
            </clipPath>
        </defs>
    </symbol>

    <symbol id="pay" viewBox="0 0 16 16">
        <g clip-path="url(#clip0_46_1144)">
            <path d="M12.6667 2H3.33333C2.4496 2.00106 1.60237 2.35259 0.97748 2.97748C0.352588 3.60237 0.00105857 4.4496 0 5.33333H16C15.9989 4.4496 15.6474 3.60237 15.0225 2.97748C14.3976 2.35259 13.5504 2.00106 12.6667 2Z"/>
            <path d="M0 10.6667C0.00105857 11.5504 0.352588 12.3976 0.97748 13.0225C1.60237 13.6474 2.4496 13.9989 3.33333 14H12.6667C13.5504 13.9989 14.3976 13.6474 15.0225 13.0225C15.6474 12.3976 15.9989 11.5504 16 10.6667V6.66667H0V10.6667ZM4.66667 10.3333C4.66667 10.5311 4.60802 10.7245 4.49814 10.8889C4.38826 11.0534 4.23208 11.1815 4.04935 11.2572C3.86662 11.3329 3.66556 11.3527 3.47158 11.3141C3.2776 11.2755 3.09941 11.1803 2.95956 11.0404C2.81971 10.9006 2.72447 10.7224 2.68588 10.5284C2.6473 10.3344 2.6671 10.1334 2.74279 9.95066C2.81847 9.76793 2.94665 9.61175 3.1111 9.50187C3.27555 9.39199 3.46889 9.33334 3.66667 9.33334C3.93188 9.33334 4.18624 9.4387 4.37377 9.62623C4.56131 9.81377 4.66667 10.0681 4.66667 10.3333Z"/>
        </g>
        <defs>
            <clipPath id="clip0_46_1144">
                <rect width="16" height="16" fill="white"/>
            </clipPath>
        </defs>
    </symbol>

    <symbol id="minus" viewBox="0 0 20 20">
        <path d="M14.1667 9.16666H5.83333C5.3731 9.16666 5 9.53975 5 9.99999C5 10.4602 5.3731 10.8333 5.83333 10.8333H14.1667C14.6269 10.8333 15 10.4602 15 9.99999C15 9.53975 14.6269 9.16666 14.1667 9.16666Z"/>
    </symbol>

    <symbol id="plus" viewBox="0 0 20 20">
        <path d="M14.1667 9.16667H10.8333V5.83333C10.8333 5.61232 10.7455 5.40036 10.5893 5.24408C10.433 5.0878 10.221 5 10 5C9.77899 5 9.56702 5.0878 9.41074 5.24408C9.25446 5.40036 9.16667 5.61232 9.16667 5.83333V9.16667H5.83333C5.61232 9.16667 5.40036 9.25446 5.24408 9.41074C5.0878 9.56702 5 9.77899 5 10C5 10.221 5.0878 10.433 5.24408 10.5893C5.40036 10.7455 5.61232 10.8333 5.83333 10.8333H9.16667V14.1667C9.16667 14.3877 9.25446 14.5996 9.41074 14.7559C9.56702 14.9122 9.77899 15 10 15C10.221 15 10.433 14.9122 10.5893 14.7559C10.7455 14.5996 10.8333 14.3877 10.8333 14.1667V10.8333H14.1667C14.3877 10.8333 14.5996 10.7455 14.7559 10.5893C14.9122 10.433 15 10.221 15 10C15 9.77899 14.9122 9.56702 14.7559 9.41074C14.5996 9.25446 14.3877 9.16667 14.1667 9.16667Z"/>
    </symbol>

    <symbol id="promo" viewBox="0 0 16 16" fill="none" xmlns="http://www.w3.org/2000/svg">
        <g clip-path="url(#clip0_71_870)">
            <path d="M4 16H5.42C5.71836 15.9972 6.00733 15.8953 6.24154 15.7105C6.47575 15.5256 6.64193 15.2682 6.714 14.9787C6.79118 14.6968 6.95885 14.4481 7.19121 14.2708C7.42356 14.0935 7.70773 13.9974 8 13.9974C8.29227 13.9974 8.57644 14.0935 8.80879 14.2708C9.04115 14.4481 9.20882 14.6968 9.286 14.9787C9.35807 15.2682 9.52425 15.5256 9.75846 15.7105C9.99267 15.8953 10.2816 15.9972 10.58 16H12C12.5304 16 13.0391 15.7893 13.4142 15.4142C13.7893 15.0391 14 14.5304 14 14V11.3333H11.3333C11.1565 11.3333 10.987 11.2631 10.8619 11.1381C10.7369 11.013 10.6667 10.8435 10.6667 10.6667C10.6667 10.4899 10.7369 10.3203 10.8619 10.1953C10.987 10.0702 11.1565 10 11.3333 10H14V3.33333C13.9989 2.4496 13.6474 1.60237 13.0225 0.97748C12.3976 0.352588 11.5504 0.00105857 10.6667 0L10.58 0C10.2816 0.00283454 9.99267 0.104675 9.75846 0.289533C9.52425 0.47439 9.35807 0.731795 9.286 1.02133C9.20882 1.30323 9.04115 1.55195 8.80879 1.72924C8.57644 1.90652 8.29227 2.00256 8 2.00256C7.70773 2.00256 7.42356 1.90652 7.19121 1.72924C6.95885 1.55195 6.79118 1.30323 6.714 1.02133C6.64193 0.731795 6.47575 0.47439 6.24154 0.289533C6.00733 0.104675 5.71836 0.00283454 5.42 0L5.33333 0C4.4496 0.00105857 3.60237 0.352588 2.97748 0.97748C2.35259 1.60237 2.00106 2.4496 2 3.33333V10H4.66667C4.84348 10 5.01305 10.0702 5.13807 10.1953C5.2631 10.3203 5.33333 10.4899 5.33333 10.6667C5.33333 10.8435 5.2631 11.013 5.13807 11.1381C5.01305 11.2631 4.84348 11.3333 4.66667 11.3333H2V14C2 14.5304 2.21071 15.0391 2.58579 15.4142C2.96086 15.7893 3.46957 16 4 16ZM7.33333 10H8.66667C8.84348 10 9.01305 10.0702 9.13807 10.1953C9.2631 10.3203 9.33333 10.4899 9.33333 10.6667C9.33333 10.8435 9.2631 11.013 9.13807 11.1381C9.01305 11.2631 8.84348 11.3333 8.66667 11.3333H7.33333C7.15652 11.3333 6.98695 11.2631 6.86193 11.1381C6.7369 11.013 6.66667 10.8435 6.66667 10.6667C6.66667 10.4899 6.7369 10.3203 6.86193 10.1953C6.98695 10.0702 7.15652 10 7.33333 10Z" fill="#A8A2BE"/>
        </g>
        <defs>
            <clipPath id="clip0_71_870">
                <rect width="16" height="16" fill="white"/>
            </clipPath>
        </defs>
    </symbol>

    <symbol id="arrow" viewBox="0 0 21 20">
        <path d="M16.3333 9.16672H8L10.7417 6.42505C10.8198 6.34758 10.8818 6.25541 10.9241 6.15386C10.9664 6.05231 10.9882 5.94339 10.9882 5.83338C10.9882 5.72337 10.9664 5.61445 10.9241 5.5129C10.8818 5.41135 10.8198 5.31919 10.7417 5.24172C10.5855 5.08651 10.3743 4.99939 10.1542 4.99939C9.93401 4.99939 9.7228 5.08651 9.56667 5.24172L5.99167 8.82505C5.67868 9.13618 5.50186 9.55874 5.5 10.0001V10.0001C5.50406 10.4385 5.6807 10.8576 5.99167 11.1667L9.56667 14.7501C9.64437 14.8272 9.7365 14.8883 9.83781 14.9298C9.93912 14.9714 10.0476 14.9926 10.1571 14.9922C10.2666 14.9918 10.375 14.9698 10.476 14.9276C10.577 14.8853 10.6687 14.8236 10.7458 14.7459C10.823 14.6682 10.8841 14.5761 10.9256 14.4747C10.9672 14.3734 10.9884 14.2649 10.988 14.1554C10.9876 14.0459 10.9656 13.9376 10.9234 13.8366C10.8811 13.7356 10.8194 13.6439 10.7417 13.5667L8 10.8334H16.3333C16.5543 10.8334 16.7663 10.7456 16.9226 10.5893C17.0789 10.433 17.1667 10.2211 17.1667 10.0001C17.1667 9.77904 17.0789 9.56708 16.9226 9.41079C16.7663 9.25451 16.5543 9.16672 16.3333 9.16672Z"/>
    </symbol>

    <symbol id="payment" viewBox="0 0 25 24">
        <g clip-path="url(#clip0_81_1661)">
            <path fill-rule="evenodd" clip-rule="evenodd" d="M7.76683 12.2274C7.77375 7.68044 11.543 3.97327 16.2998 3.97327C20.9991 3.97327 24.8946 7.68726 24.8328 12.2399C24.8328 16.7926 20.9991 20.5066 16.2998 20.5066C11.6047 20.5066 7.7738 16.7993 7.76683 12.2524V18.3733H4.73347L0.833496 6.63994H7.76683V12.2274ZM13.0845 12.2399C13.0845 13.9172 14.5685 15.295 16.2998 15.295C18.093 15.295 19.4533 13.9172 19.5151 12.2399C19.5151 10.5626 18.093 9.18484 16.2998 9.18484C14.5066 9.18484 13.0845 10.5626 13.0845 12.2399Z"/>
        </g>
        <defs>
            <clipPath id="clip0_81_1661">
                <rect width="24" height="24" fill="white" transform="translate(0.833496)"/>
            </clipPath>
        </defs>
    </symbol>

    <symbol id="payment2" viewBox="0 0 24 24">
        <g clip-path="url(#clip0_81_1665)">
            <path d="M23.8811 0.335693C23.7505 0.140487 23.5315 0.0234375 23.297 0.0234375H18.435C18.1433 0.0234375 17.882 0.203782 17.778 0.476777L13.8648 10.7515L11.9457 2.45158C11.6238 1.05927 10.4017 0.086916 8.97407 0.086916H0.702815C0.332392 0.086916 0.0258728 0.374954 0.0015198 0.745184C-0.0226502 1.1156 0.244135 1.44143 0.611445 1.49005C0.630854 1.49262 2.57397 1.75845 4.94922 2.80879C5.33795 2.98069 5.75324 3.18103 6.18372 3.41238L10.2228 19.0285C10.3032 19.3392 10.5832 19.5563 10.9036 19.5563H15.8609C16.146 19.5563 16.4028 19.3838 16.5112 19.1196L23.9472 0.995796C24.0363 0.778391 24.0116 0.530898 23.8811 0.335693V0.335693ZM5.46301 1.4961H8.97407C9.74366 1.4961 10.4023 2.01971 10.5757 2.76952L11.1942 5.44498C10.6863 4.90871 10.135 4.40345 9.54243 3.93195C8.34363 2.97831 6.97492 2.16042 5.474 1.50087C5.47034 1.49922 5.46668 1.49757 5.46301 1.4961Z"/>
        </g>
        <defs>
            <clipPath id="clip0_81_1665">
                <rect width="24" height="24" fill="white"/>
            </clipPath>
        </defs>
    </symbol>

    <symbol id="user" viewBox="0 0 18 18">
        <path d="M9 9C11.4853 9 13.5 6.98528 13.5 4.5C13.5 2.01472 11.4853 0 9 0C6.51472 0 4.5 2.01472 4.5 4.5C4.5 6.98528 6.51472 9 9 9Z"/>
        <path d="M9 10.5C5.27379 10.5041 2.25415 13.5238 2.25 17.25C2.25 17.6642 2.58578 18 2.99999 18H15C15.4142 18 15.75 17.6642 15.75 17.25C15.7459 13.5238 12.7262 10.5041 9 10.5Z"/>
    </symbol>

    <symbol id="tel" viewBox="0 0 18 18">
        <g clip-path="url(#clip0_86_2327)">
            <path d="M17.2502 8.25001C17.0513 8.25001 16.8605 8.17099 16.7199 8.03034C16.5792 7.88969 16.5002 7.69892 16.5002 7.50001C16.4986 5.9092 15.866 4.384 14.7411 3.25912C13.6162 2.13425 12.091 1.5016 10.5002 1.50001C10.3013 1.50001 10.1105 1.42099 9.96989 1.28034C9.82924 1.13969 9.75022 0.94892 9.75022 0.750008C9.75022 0.551095 9.82924 0.36033 9.96989 0.219677C10.1105 0.0790251 10.3013 7.49331e-06 10.5002 7.49331e-06C12.4887 0.00219119 14.3951 0.793069 15.8011 2.19912C17.2072 3.60517 17.998 5.51155 18.0002 7.50001C18.0002 7.69892 17.9212 7.88969 17.7806 8.03034C17.6399 8.17099 17.4491 8.25001 17.2502 8.25001ZM15.0002 7.50001C15.0002 6.30653 14.5261 5.16194 13.6822 4.31803C12.8383 3.47411 11.6937 3.00001 10.5002 3.00001C10.3013 3.00001 10.1105 3.07903 9.96989 3.21968C9.82924 3.36033 9.75022 3.5511 9.75022 3.75001C9.75022 3.94892 9.82924 4.13969 9.96989 4.28034C10.1105 4.42099 10.3013 4.50001 10.5002 4.50001C11.2959 4.50001 12.0589 4.81608 12.6215 5.37869C13.1842 5.9413 13.5002 6.70436 13.5002 7.50001C13.5002 7.69892 13.5792 7.88969 13.7199 8.03034C13.8605 8.17099 14.0513 8.25001 14.2502 8.25001C14.4491 8.25001 14.6399 8.17099 14.7806 8.03034C14.9212 7.88969 15.0002 7.69892 15.0002 7.50001ZM16.6375 16.623L17.32 15.8363C17.7544 15.4005 17.9983 14.8102 17.9983 14.1949C17.9983 13.5796 17.7544 12.9893 17.32 12.5535C17.2967 12.5303 15.4922 11.142 15.4922 11.142C15.0591 10.7298 14.4839 10.5002 13.8859 10.501C13.288 10.5019 12.7134 10.733 12.2815 11.1465L10.852 12.351C9.6851 11.8681 8.62514 11.1594 7.73293 10.2656C6.84074 9.3719 6.13388 8.31071 5.65297 7.14301L6.85297 5.71801C7.26676 5.28614 7.49819 4.71142 7.49917 4.11331C7.50015 3.5152 7.27059 2.93973 6.85822 2.50651C6.85822 2.50651 5.46847 0.704258 5.44522 0.681008C5.01731 0.250319 4.43713 0.00527401 3.83004 -0.00118142C3.22295 -0.00763684 2.63769 0.225015 2.20072 0.646508L1.33822 1.39651C-3.75728 7.30801 7.21522 18.1958 13.3217 18C13.9384 18.0036 14.5495 17.8836 15.119 17.6471C15.6884 17.4106 16.2048 17.0624 16.6375 16.623Z"/>
        </g>
        <defs>
            <clipPath id="clip0_86_2327">
                <rect width="18" height="18" fill="white"/>
            </clipPath>
        </defs>
    </symbol>

    <symbol id="reload" viewBox="0 0 21 20">
        <g clip-path="url(#clip0_64_3984)">
            <path d="M3.07185 8.9034C3.67531 4.80255 7.48889 1.96736 11.5897 2.57081C12.9889 2.77669 14.3013 3.37369 15.376 4.29302L14.4086 5.26043C14.0843 5.58475 14.0844 6.11056 14.4088 6.4348C14.5644 6.59042 14.7756 6.67789 14.9957 6.67793H18.8039C19.2626 6.67793 19.6343 6.30615 19.6343 5.84754V2.03929C19.6342 1.58067 19.2624 1.20898 18.8037 1.20906C18.5836 1.20909 18.3725 1.29656 18.2168 1.45218L17.1372 2.5317C13.0205 -1.13798 6.70836 -0.775584 3.03868 3.34114C1.73862 4.79955 0.894957 6.60732 0.612204 8.5405C0.500722 9.22586 0.965917 9.87182 1.65123 9.9833C1.71297 9.99334 1.77533 9.99875 1.83788 9.99953C2.46489 9.99276 2.9912 9.52523 3.07185 8.9034Z"/>
            <path d="M19.1616 9.99954C18.5346 10.0063 18.0083 10.4738 17.9276 11.0957C17.3242 15.1965 13.5106 18.0317 9.40975 17.4283C8.01062 17.2224 6.69814 16.6254 5.6235 15.7061L6.5909 14.7387C6.91515 14.4144 6.91507 13.8886 6.59071 13.5643C6.43505 13.4087 6.22392 13.3212 6.00379 13.3212H2.19563C1.73701 13.3212 1.36523 13.693 1.36523 14.1516V17.9598C1.36535 18.4184 1.7372 18.7901 2.19582 18.7901C2.41594 18.79 2.62707 18.7026 2.78273 18.5469L3.86225 17.4674C7.978 21.1375 14.2897 20.7762 17.9598 16.6604C19.2605 15.2017 20.1046 13.3933 20.3873 11.4594C20.4992 10.7742 20.0345 10.1279 19.3492 10.0159C19.2872 10.0058 19.2245 10.0003 19.1616 9.99954Z"/>
        </g>
        <defs>
            <clipPath id="clip0_64_3984">
                <rect width="20" height="20" fill="white" transform="translate(0.5)"/>
            </clipPath>
        </defs>
    </symbol>

    <symbol id="review" viewBox="0 0 21 20">
        <g clip-path="url(#clip0_64_3993)">
            <path d="M17.1667 0H3.83333C2.94928 0 2.10143 0.35119 1.47631 0.976311C0.85119 1.60143 0.5 2.44928 0.5 3.33333L0.5 13.3333C0.5 14.2174 0.85119 15.0652 1.47631 15.6904C2.10143 16.3155 2.94928 16.6667 3.83333 16.6667H6.25L9.95917 19.8025C10.1096 19.9298 10.3004 19.9997 10.4975 19.9997C10.6946 19.9997 10.8854 19.9298 11.0358 19.8025L14.75 16.6667H17.1667C18.0507 16.6667 18.8986 16.3155 19.5237 15.6904C20.1488 15.0652 20.5 14.2174 20.5 13.3333V3.33333C20.5 2.44928 20.1488 1.60143 19.5237 0.976311C18.8986 0.35119 18.0507 0 17.1667 0V0ZM6.33333 4.16667H10.5C10.721 4.16667 10.933 4.25446 11.0893 4.41074C11.2455 4.56703 11.3333 4.77899 11.3333 5C11.3333 5.22101 11.2455 5.43298 11.0893 5.58926C10.933 5.74554 10.721 5.83333 10.5 5.83333H6.33333C6.11232 5.83333 5.90036 5.74554 5.74408 5.58926C5.5878 5.43298 5.5 5.22101 5.5 5C5.5 4.77899 5.5878 4.56703 5.74408 4.41074C5.90036 4.25446 6.11232 4.16667 6.33333 4.16667V4.16667ZM14.6667 12.5H6.33333C6.11232 12.5 5.90036 12.4122 5.74408 12.2559C5.5878 12.0996 5.5 11.8877 5.5 11.6667C5.5 11.4457 5.5878 11.2337 5.74408 11.0774C5.90036 10.9211 6.11232 10.8333 6.33333 10.8333H14.6667C14.8877 10.8333 15.0996 10.9211 15.2559 11.0774C15.4122 11.2337 15.5 11.4457 15.5 11.6667C15.5 11.8877 15.4122 12.0996 15.2559 12.2559C15.0996 12.4122 14.8877 12.5 14.6667 12.5ZM14.6667 9.16667H6.33333C6.11232 9.16667 5.90036 9.07887 5.74408 8.92259C5.5878 8.76631 5.5 8.55435 5.5 8.33333C5.5 8.11232 5.5878 7.90036 5.74408 7.74408C5.90036 7.5878 6.11232 7.5 6.33333 7.5H14.6667C14.8877 7.5 15.0996 7.5878 15.2559 7.74408C15.4122 7.90036 15.5 8.11232 15.5 8.33333C15.5 8.55435 15.4122 8.76631 15.2559 8.92259C15.0996 9.07887 14.8877 9.16667 14.6667 9.16667Z"/>
        </g>
        <defs>
            <clipPath id="clip0_64_3993">
                <rect width="20" height="20" fill="white" transform="translate(0.5)"/>
            </clipPath>
        </defs>
    </symbol>

    <svg id="email2" viewBox="0 0 24 24">
        <g clip-path="url(#clip0_100_1976)">
            <path d="M23.954 5.54199L15.536 13.96C14.5974 14.8962 13.3257 15.422 12 15.422C10.6743 15.422 9.40263 14.8962 8.464 13.96L0.046 5.54199C0.032 5.69999 0 5.84299 0 5.99999V18C0.00158786 19.3256 0.528882 20.5964 1.46622 21.5338C2.40356 22.4711 3.67441 22.9984 5 23H19C20.3256 22.9984 21.5964 22.4711 22.5338 21.5338C23.4711 20.5964 23.9984 19.3256 24 18V5.99999C24 5.84299 23.968 5.69999 23.954 5.54199Z" fill="white"/>
            <path d="M14.1221 12.546L23.2561 3.411C22.8137 2.67732 22.1896 2.07004 21.4441 1.64773C20.6986 1.22542 19.8569 1.00234 19.0001 1H5.00014C4.14336 1.00234 3.30164 1.22542 2.55617 1.64773C1.81069 2.07004 1.18662 2.67732 0.744141 3.411L9.87814 12.546C10.4417 13.1073 11.2047 13.4225 12.0001 13.4225C12.7956 13.4225 13.5586 13.1073 14.1221 12.546Z" fill="white"/>
        </g>
        <defs>
            <clipPath id="clip0_100_1976">
                <rect width="24" height="24" fill="white"/>
            </clipPath>
        </defs>
    </svg>

    <svg id="vk2" viewBox="0 0 24 24">
        <g clip-path="url(#clip0_64_1317)">
            <path d="M21.2797 10.8782C21.621 10.437 21.8919 10.083 22.092 9.8159C23.5331 7.89992 24.1578 6.67597 23.9663 6.14235L23.8912 6.01738C23.8413 5.94231 23.7119 5.87338 23.5038 5.81098C23.2955 5.74863 23.029 5.73867 22.7042 5.77983L19.1055 5.80521C19.0222 5.79692 18.9388 5.79886 18.8555 5.81098C18.7722 5.82365 18.7182 5.83637 18.693 5.84849C18.6679 5.86121 18.6472 5.8714 18.6307 5.87969L18.5807 5.9172C18.5391 5.94204 18.4933 5.98591 18.4434 6.04858C18.3934 6.1112 18.3514 6.18378 18.3184 6.26737C17.9268 7.27527 17.4812 8.21257 16.9813 9.07896C16.673 9.59549 16.3897 10.0436 16.1318 10.4221C15.8735 10.8015 15.6569 11.0805 15.4819 11.2592C15.307 11.4383 15.1486 11.5823 15.0071 11.6902C14.8653 11.7989 14.7571 11.8445 14.6824 11.8279C14.6073 11.8114 14.5364 11.7948 14.4699 11.7777C14.3532 11.703 14.2594 11.6011 14.1888 11.4717C14.1179 11.3429 14.0702 11.1803 14.045 10.9844C14.0202 10.7888 14.0053 10.62 14.0014 10.4781C13.997 10.3366 13.9992 10.1369 14.0078 9.8783C14.0161 9.62001 14.0202 9.4454 14.0202 9.35352C14.0202 9.0373 14.0265 8.69353 14.039 8.32272C14.0514 7.95217 14.0619 7.65831 14.0702 7.44168C14.0785 7.22537 14.0826 6.99607 14.0826 6.75437C14.0826 6.51321 14.0679 6.32336 14.0386 6.18572C14.0094 6.04858 13.9655 5.91531 13.9076 5.78592C13.8491 5.65707 13.7638 5.55689 13.6512 5.48629C13.5387 5.41537 13.3993 5.35937 13.2327 5.3174C12.7909 5.21722 12.2286 5.16371 11.5458 5.15492C9.99621 5.13891 9.00071 5.23877 8.55924 5.45509C8.38431 5.54697 8.22593 5.67167 8.08441 5.83005C7.93433 6.01355 7.91363 6.11368 8.02206 6.12968C8.522 6.20475 8.87578 6.38409 9.08407 6.66718L9.15913 6.81699C9.21734 6.92569 9.27558 7.11721 9.33406 7.392C9.39231 7.66683 9.42982 7.97088 9.44663 8.30419C9.48829 8.91228 9.48829 9.43269 9.44663 9.86617C9.40498 10.2996 9.36553 10.6368 9.32802 10.878C9.29046 11.1197 9.2342 11.3153 9.1594 11.4651C9.08434 11.6154 9.03443 11.7071 9.00932 11.7404C8.9842 11.7735 8.96351 11.7945 8.94696 11.8028C8.83854 11.8442 8.72623 11.8652 8.60955 11.8652C8.49283 11.8652 8.35127 11.8066 8.18464 11.6899C8.01796 11.5738 7.84497 11.4132 7.66617 11.209C7.48682 11.0051 7.28512 10.7196 7.05996 10.3529C6.83508 9.98673 6.60164 9.55324 6.36021 9.05358L6.16044 8.69101C6.03547 8.45815 5.86465 8.11848 5.64806 7.67287C5.43148 7.22726 5.23969 6.7963 5.07333 6.3794C5.00656 6.20475 4.90665 6.07148 4.77343 5.9796L4.71108 5.94209C4.66942 5.90895 4.60265 5.87338 4.51104 5.8361C4.41916 5.79859 4.32371 5.77153 4.22354 5.75472L0.799704 5.77956C0.44985 5.77956 0.212572 5.85904 0.0875987 6.01738L0.0376453 6.09217C0.0123982 6.1341 0 6.20087 0 6.29221C0 6.38409 0.0251119 6.4964 0.0750652 6.6294C0.575004 7.80425 1.11858 8.93717 1.70572 10.0281C2.29316 11.1197 2.80334 11.9987 3.23651 12.665C3.66968 13.3319 4.11114 13.9605 4.56117 14.552C5.0112 15.1436 5.30889 15.5224 5.45456 15.6888C5.60023 15.8557 5.71474 15.9807 5.7981 16.0637L6.11045 16.3639C6.31021 16.5637 6.60407 16.8031 6.99148 17.0824C7.37885 17.3616 7.80764 17.6364 8.27864 17.9069C8.74909 18.1778 9.29704 18.3982 9.92169 18.5693C10.5464 18.7404 11.1545 18.809 11.746 18.7754H13.183C13.4747 18.7506 13.6953 18.6593 13.8452 18.5006L13.8951 18.4382C13.9282 18.3885 13.9597 18.3113 13.9889 18.2073C14.0179 18.1032 14.0329 17.9885 14.0329 17.8638C14.0243 17.5056 14.0516 17.1823 14.114 16.8953C14.1763 16.6078 14.2472 16.3915 14.3265 16.2453C14.4056 16.0998 14.495 15.9768 14.5951 15.8766C14.6951 15.7764 14.7657 15.7166 14.8076 15.6956C14.8493 15.6752 14.8827 15.6606 14.9076 15.6517C15.1073 15.5852 15.3426 15.6498 15.6136 15.8454C15.8843 16.0416 16.1384 16.2827 16.3759 16.5702C16.6132 16.8577 16.8985 17.1803 17.2318 17.5387C17.5649 17.8968 17.8565 18.1633 18.1065 18.3383L18.3564 18.4887C18.523 18.5883 18.7394 18.6799 19.0062 18.7635C19.2727 18.8465 19.5062 18.8675 19.7059 18.8259L22.9049 18.7756C23.2214 18.7756 23.4672 18.7238 23.6422 18.6195C23.8171 18.516 23.9211 18.4007 23.9545 18.276C23.9876 18.151 23.9898 18.01 23.9609 17.8513C23.9317 17.6932 23.9024 17.5828 23.8735 17.5205C23.8442 17.4581 23.8171 17.4057 23.792 17.3643C23.3754 16.6147 22.5799 15.6939 21.4053 14.6027L21.3802 14.5778L21.3678 14.5652L21.3554 14.553H21.3429C20.8095 14.0448 20.4723 13.7032 20.3308 13.528C20.0726 13.1952 20.0141 12.8578 20.1559 12.5162C20.2552 12.2572 20.6299 11.7115 21.2797 10.8782Z" fill="white"/>
        </g>
        <defs>
            <clipPath id="clip0_64_1317">
                <rect width="24" height="24" fill="white"/>
            </clipPath>
        </defs>
    </svg>

    <svg id="telegram2" viewBox="0 0 24 24">
        <g clip-path="url(#clip0_64_70)">
            <path d="M9.41718 15.181L9.02018 20.765C9.58818 20.765 9.83418 20.521 10.1292 20.228L12.7922 17.683L18.3102 21.724C19.3222 22.288 20.0352 21.991 20.3082 20.793L23.9302 3.82101L23.9312 3.82001C24.2522 2.32401 23.3902 1.73901 22.4042 2.10601L1.11418 10.257C-0.338822 10.821 -0.316822 11.631 0.867178 11.998L6.31018 13.691L18.9532 5.78001C19.5482 5.38601 20.0892 5.60401 19.6442 5.99801L9.41718 15.181Z" fill="white"/>
        </g>
        <defs>
            <clipPath id="clip0_64_70">
                <rect width="24" height="24" fill="white"/>
            </clipPath>
        </defs>
    </svg>


</svg>
