<svg display="none" xmlns="http://www.w3.org/2000/svg">


    <symbol id="vk" viewBox="0 0 26 26">
        <g clip-path="url(#clip0_11_104)">
            <path d="M23.053 11.7847C23.4227 11.3067 23.7162 10.9232 23.933 10.6339C25.4942 8.55825 26.1709 7.23231 25.9635 6.65423L25.8821 6.51884C25.8281 6.43752 25.6879 6.36284 25.4625 6.29524C25.2368 6.2277 24.9481 6.2169 24.5963 6.2615L20.6976 6.28899C20.6074 6.28001 20.5171 6.28211 20.4268 6.29524C20.3366 6.30897 20.278 6.32274 20.2508 6.33588C20.2235 6.34965 20.2011 6.36069 20.1832 6.36968L20.1291 6.41031C20.084 6.43723 20.0344 6.48475 19.9803 6.55264C19.9262 6.62048 19.8807 6.69911 19.8449 6.78966C19.4207 7.88156 18.938 8.89697 18.3964 9.83555C18.0625 10.3951 17.7555 10.8806 17.4761 11.2906C17.1963 11.7016 16.9616 12.0039 16.7721 12.1975C16.5826 12.3915 16.411 12.5475 16.2577 12.6644C16.1041 12.7822 15.9869 12.8315 15.9059 12.8136C15.8246 12.7957 15.7478 12.7777 15.6757 12.7592C15.5493 12.6782 15.4477 12.5679 15.3712 12.4277C15.2944 12.2882 15.2427 12.112 15.2154 11.8998C15.1885 11.6879 15.1724 11.505 15.1682 11.3513C15.1634 11.198 15.1658 10.9816 15.1751 10.7015C15.1841 10.4217 15.1885 10.2325 15.1885 10.133C15.1885 9.79042 15.1954 9.41801 15.2089 9.01629C15.2224 8.61486 15.2337 8.29651 15.2427 8.06183C15.2517 7.82749 15.2561 7.57909 15.2561 7.31725C15.2561 7.056 15.2403 6.85032 15.2085 6.70121C15.1768 6.55264 15.1293 6.40826 15.0665 6.26809C15.0032 6.1285 14.9108 6.01998 14.7888 5.94349C14.6669 5.86666 14.5159 5.806 14.3354 5.76053C13.8568 5.65201 13.2477 5.59403 12.5079 5.58451C10.8292 5.56717 9.75076 5.67535 9.27251 5.90969C9.08301 6.00923 8.91143 6.14432 8.75811 6.3159C8.59552 6.51469 8.5731 6.62316 8.69057 6.6405C9.23217 6.72182 9.61542 6.91611 9.84107 7.22279L9.92239 7.38509C9.98545 7.50284 10.0485 7.71032 10.1119 8.00801C10.175 8.30575 10.2156 8.63513 10.2339 8.99621C10.279 9.65498 10.279 10.2188 10.2339 10.6884C10.1887 11.1579 10.146 11.5232 10.1054 11.7845C10.0647 12.0463 10.0037 12.2582 9.92269 12.4205C9.84136 12.5834 9.7873 12.6827 9.76009 12.7188C9.73289 12.7546 9.71047 12.7774 9.69255 12.7864C9.57508 12.8312 9.45342 12.8539 9.32702 12.8539C9.20057 12.8539 9.04721 12.7905 8.86669 12.6641C8.68612 12.5383 8.49872 12.3643 8.30501 12.1431C8.11072 11.9222 7.89221 11.6129 7.64829 11.2156C7.40467 10.819 7.15177 10.3494 6.89023 9.80805L6.67381 9.41527C6.53843 9.16301 6.35337 8.79504 6.11873 8.31229C5.8841 7.82954 5.67633 7.36267 5.49611 6.91103C5.42377 6.72182 5.31554 6.57745 5.17121 6.47791L5.10367 6.43727C5.05854 6.40138 4.9862 6.36284 4.88696 6.32245C4.78742 6.28181 4.68402 6.25251 4.5755 6.23429L0.866346 6.2612C0.487338 6.2612 0.230286 6.34731 0.0948985 6.51884L0.0407824 6.59987C0.0134313 6.64529 0 6.71762 0 6.81658C0 6.91611 0.0272046 7.03778 0.0813207 7.18186C0.622921 8.45461 1.2118 9.68195 1.84786 10.8638C2.48426 12.0463 3.03695 12.9986 3.50622 13.7205C3.97548 14.4429 4.45374 15.1238 4.94127 15.7647C5.4288 16.4055 5.7513 16.8159 5.90911 16.9962C6.06691 17.177 6.19097 17.3125 6.28128 17.4024L6.61965 17.7276C6.83606 17.944 7.15441 18.2034 7.57411 18.5059C7.99375 18.8084 8.45828 19.1062 8.96852 19.3991C9.47818 19.6926 10.0718 19.9314 10.7485 20.1168C11.4252 20.3021 12.084 20.3765 12.7249 20.34H14.2816C14.5976 20.3131 14.8366 20.2142 14.999 20.0423L15.0531 19.9747C15.0889 19.9209 15.123 19.8373 15.1547 19.7245C15.1861 19.6119 15.2023 19.4875 15.2023 19.3524C15.1929 18.9645 15.2226 18.6141 15.2901 18.3033C15.3577 17.9918 15.4345 17.7575 15.5203 17.5991C15.6061 17.4415 15.7029 17.3082 15.8114 17.1997C15.9197 17.0912 15.9961 17.0263 16.0416 17.0036C16.0867 16.9815 16.1229 16.9656 16.1498 16.9561C16.3662 16.884 16.6212 16.954 16.9147 17.1659C17.2079 17.3784 17.4833 17.6396 17.7406 17.9511C17.9976 18.2626 18.3067 18.612 18.6678 19.0003C19.0286 19.3882 19.3445 19.677 19.6153 19.8665L19.8862 20.0294C20.0666 20.1373 20.301 20.2365 20.5901 20.3271C20.8788 20.4171 21.1317 20.4398 21.3481 20.3947L24.8136 20.3403C25.1565 20.3403 25.4228 20.2841 25.6124 20.1711C25.8018 20.059 25.9146 19.9341 25.9507 19.799C25.9866 19.6636 25.989 19.5109 25.9576 19.3389C25.926 19.1676 25.8943 19.0481 25.8629 18.9805C25.8313 18.913 25.8019 18.8562 25.7746 18.8114C25.3234 17.9992 24.4616 17.0017 23.1891 15.8196L23.1619 15.7927L23.1485 15.7789L23.135 15.7658H23.1214C22.5437 15.2152 22.1784 14.8451 22.025 14.6553C21.7453 14.2949 21.6819 13.9293 21.8356 13.5593C21.9432 13.2787 22.3491 12.6874 23.053 11.7847Z"/>
        </g>
        <defs>
            <clipPath id="clip0_11_104">
                <rect width="26" height="26" fill="white"/>
            </clipPath>
        </defs>
    </symbol>

    <symbol id="telegram" viewBox="0 0 26 26">
        <g clip-path="url(#clip0_11_105)">
            <path d="M10.2017 16.4461L9.77162 22.4954C10.3869 22.4954 10.6534 22.2311 10.973 21.9137L13.8579 19.1566L19.8358 23.5343C20.9321 24.1453 21.7045 23.8236 22.0003 22.5257L25.9241 4.13941L25.9252 4.13833C26.2729 2.51766 25.3391 1.88391 24.2709 2.2815L1.20678 11.1117C-0.367301 11.7227 -0.343468 12.6002 0.939198 12.9978L6.83578 14.8319L20.5324 6.26167C21.1769 5.83483 21.763 6.071 21.2809 6.49783L10.2017 16.4461Z"/>
        </g>
        <defs>
            <clipPath id="clip0_11_105">
                <rect width="26" height="26" fill="white"/>
            </clipPath>
        </defs>
    </symbol>

    <symbol id="user" viewBox="0 0 24 24">
        <g clip-path="url(#clip0_1_3602)">
            <path d="M12 12C13.1867 12 14.3467 11.6481 15.3334 10.9888C16.3201 10.3295 17.0892 9.39246 17.5433 8.2961C17.9974 7.19975 18.1162 5.99335 17.8847 4.82946C17.6532 3.66558 17.0818 2.59648 16.2426 1.75736C15.4035 0.918247 14.3344 0.346802 13.1705 0.115291C12.0067 -0.11622 10.8003 0.00259972 9.7039 0.456726C8.60754 0.910851 7.67047 1.67989 7.01118 2.66658C6.35189 3.65328 6 4.81331 6 6C6.00159 7.59081 6.63424 9.11602 7.75911 10.2409C8.88399 11.3658 10.4092 11.9984 12 12ZM12 2C12.7911 2 13.5645 2.2346 14.2223 2.67412C14.8801 3.11365 15.3928 3.73836 15.6955 4.46927C15.9983 5.20017 16.0775 6.00444 15.9231 6.78036C15.7688 7.55629 15.3878 8.26902 14.8284 8.82843C14.269 9.38784 13.5563 9.7688 12.7804 9.92314C12.0044 10.0775 11.2002 9.99827 10.4693 9.69552C9.73836 9.39277 9.11365 8.88008 8.67412 8.22228C8.2346 7.56449 8 6.79113 8 6C8 4.93914 8.42143 3.92172 9.17157 3.17158C9.92172 2.42143 10.9391 2 12 2V2Z"/>
            <path d="M12 14C9.61386 14.0026 7.32622 14.9517 5.63896 16.639C3.95171 18.3262 3.00265 20.6139 3 23C3 23.2652 3.10536 23.5196 3.29289 23.7071C3.48043 23.8946 3.73478 24 4 24C4.26522 24 4.51957 23.8946 4.70711 23.7071C4.89464 23.5196 5 23.2652 5 23C5 21.1435 5.7375 19.363 7.05025 18.0503C8.36301 16.7375 10.1435 16 12 16C13.8565 16 15.637 16.7375 16.9497 18.0503C18.2625 19.363 19 21.1435 19 23C19 23.2652 19.1054 23.5196 19.2929 23.7071C19.4804 23.8946 19.7348 24 20 24C20.2652 24 20.5196 23.8946 20.7071 23.7071C20.8946 23.5196 21 23.2652 21 23C20.9974 20.6139 20.0483 18.3262 18.361 16.639C16.6738 14.9517 14.3861 14.0026 12 14V14Z"/>
        </g>
        <defs>
            <clipPath id="clip0_1_3602">
                <rect width="24" height="24" fill="white"/>
            </clipPath>
        </defs>
    </symbol>

    <symbol id="cart" viewBox="0 0 24 24">
        <g clip-path="url(#clip0_1_3596)">
            <path d="M22.713 4.077C22.4317 3.73944 22.0796 3.46795 21.6815 3.28182C21.2835 3.09568 20.8494 2.99946 20.41 3H4.242L4.2 2.649C4.11405 1.91942 3.76338 1.24673 3.21449 0.758478C2.6656 0.270223 1.95663 0.000341793 1.222 0L1 0C0.734784 0 0.48043 0.105357 0.292893 0.292893C0.105357 0.48043 0 0.734784 0 1C0 1.26522 0.105357 1.51957 0.292893 1.70711C0.48043 1.89464 0.734784 2 1 2H1.222C1.46693 2.00003 1.70334 2.08996 1.88637 2.25272C2.06941 2.41547 2.18634 2.63975 2.215 2.883L3.591 14.583C3.73385 15.7998 4.31848 16.9218 5.23391 17.736C6.14934 18.5502 7.33185 19 8.557 19H19C19.2652 19 19.5196 18.8946 19.7071 18.7071C19.8946 18.5196 20 18.2652 20 18C20 17.7348 19.8946 17.4804 19.7071 17.2929C19.5196 17.1054 19.2652 17 19 17H8.557C7.93806 16.9983 7.3348 16.8051 6.82994 16.4471C6.32507 16.089 5.94331 15.5836 5.737 15H17.657C18.8293 15.0001 19.9643 14.5882 20.8638 13.8364C21.7633 13.0846 22.37 12.0407 22.578 10.887L23.363 6.533C23.4414 6.10101 23.4237 5.65707 23.3114 5.23264C23.1991 4.80821 22.9948 4.41368 22.713 4.077ZM21.4 6.178L20.614 10.532C20.4891 11.225 20.1245 11.852 19.5839 12.3032C19.0433 12.7544 18.3612 13.0011 17.657 13H5.419L4.478 5H20.41C20.5569 4.99912 20.7022 5.03062 20.8355 5.09226C20.9689 5.15389 21.087 5.24415 21.1815 5.35661C21.276 5.46907 21.3446 5.60097 21.3824 5.74294C21.4201 5.8849 21.4262 6.03345 21.4 6.178Z"/>
            <path d="M7 24C8.10457 24 9 23.1046 9 22C9 20.8954 8.10457 20 7 20C5.89543 20 5 20.8954 5 22C5 23.1046 5.89543 24 7 24Z"/>
            <path d="M17 24C18.1046 24 19 23.1046 19 22C19 20.8954 18.1046 20 17 20C15.8954 20 15 20.8954 15 22C15 23.1046 15.8954 24 17 24Z"/>
        </g>
        <defs>
            <clipPath id="clip0_1_3596">
                <rect width="24" height="24" fill="white"/>
            </clipPath>
        </defs>
    </symbol>

    <symbol id="email" viewBox="0 0 14 14">
        <g clip-path="url(#clip0_103_2383)">
            <path d="M13.9732 3.23285L9.06267 8.14335C8.51513 8.6895 7.77335 8.99621 7 8.99621C6.22665 8.99621 5.48487 8.6895 4.93733 8.14335L0.0268333 3.23285C0.0186667 3.32502 0 3.40843 0 3.50002V10.5C0.00092625 11.2733 0.308514 12.0146 0.855295 12.5614C1.40208 13.1082 2.1434 13.4158 2.91667 13.4167H11.0833C11.8566 13.4158 12.5979 13.1082 13.1447 12.5614C13.6915 12.0146 13.9991 11.2733 14 10.5V3.50002C14 3.40843 13.9813 3.32502 13.9732 3.23285Z"/>
            <path d="M8.23779 7.31848L13.566 1.98973C13.3078 1.56175 12.9438 1.2075 12.5089 0.961156C12.0741 0.71481 11.5831 0.584678 11.0833 0.583313H2.91663C2.41684 0.584678 1.92584 0.71481 1.49098 0.961156C1.05612 1.2075 0.692072 1.56175 0.43396 1.98973L5.76213 7.31848C6.09088 7.64591 6.53597 7.82975 6.99996 7.82975C7.46395 7.82975 7.90904 7.64591 8.23779 7.31848Z"/>
        </g>
        <defs>
            <clipPath id="clip0_103_2383">
                <rect width="14" height="14" fill="white"/>
            </clipPath>
        </defs>
    </symbol>

    <symbol id="close" viewBox="0 0 20 20">
        <g clip-path="url(#clip0_108_2155)">
            <path d="M19.7557 0.243989C19.5994 0.0877629 19.3875 0 19.1665 0C18.9455 0 18.7336 0.0877629 18.5773 0.243989L9.99982 8.82149L1.42232 0.243989C1.26605 0.0877629 1.05413 0 0.833155 0C0.612185 0 0.400262 0.0877629 0.243989 0.243989C0.0877629 0.400262 0 0.612185 0 0.833155C0 1.05413 0.0877629 1.26605 0.243989 1.42232L8.82149 9.99982L0.243989 18.5773C0.0877629 18.7336 0 18.9455 0 19.1665C0 19.3875 0.0877629 19.5994 0.243989 19.7557C0.400262 19.9119 0.612185 19.9996 0.833155 19.9996C1.05413 19.9996 1.26605 19.9119 1.42232 19.7557L9.99982 11.1782L18.5773 19.7557C18.7336 19.9119 18.9455 19.9996 19.1665 19.9996C19.3875 19.9996 19.5994 19.9119 19.7557 19.7557C19.9119 19.5994 19.9996 19.3875 19.9996 19.1665C19.9996 18.9455 19.9119 18.7336 19.7557 18.5773L11.1782 9.99982L19.7557 1.42232C19.9119 1.26605 19.9996 1.05413 19.9996 0.833155C19.9996 0.612185 19.9119 0.400262 19.7557 0.243989Z"/>
        </g>
        <defs>
            <clipPath id="clip0_108_2155">
                <rect width="20" height="20" fill="white"/>
            </clipPath>
        </defs>
    </symbol>

    <symbol id="brand" viewBox="0 0 17 16">
        <g clip-path="url(#clip0_21_2352)">
            <path d="M11.1215 0C10.259 0.0589997 9.25095 0.604996 8.6635 1.31599C8.12761 1.96099 7.68677 2.91898 7.85866 3.84998C8.80101 3.87898 9.7747 3.31998 10.3389 2.59698C10.8667 1.92399 11.2661 0.971994 11.1215 0Z"/>
            <path d="M14.5299 5.36799C13.7018 4.34099 12.5381 3.745 11.439 3.745C9.98806 3.745 9.37432 4.43199 8.36624 4.43199C7.32683 4.43199 6.53716 3.747 5.28237 3.747C4.04984 3.747 2.73742 4.49199 1.90528 5.76598C0.735433 7.55997 0.935632 10.933 2.83145 13.8059C3.50991 14.8339 4.41586 15.9899 5.60087 15.9999C6.65545 16.0099 6.95272 15.3309 8.38141 15.3239C9.8101 15.3159 10.0811 16.0089 11.1336 15.9979C12.3197 15.9889 13.2752 14.7079 13.9536 13.6799C14.44 12.9429 14.6209 12.5719 14.9981 11.7399C12.255 10.707 11.8151 6.84898 14.5299 5.36799Z"/>
        </g>
        <defs>
            <clipPath id="clip0_21_2352">
                <rect width="16.1778" height="16" fill="white"/>
            </clipPath>
        </defs>
    </symbol>

    <symbol id="brand2" viewBox="0 0 17 16">
        <path d="M3.24351 0.203907C2.83132 -0.0442202 2.34007 -0.0664079 1.91163 0.140157L9.09513 7.33898L11.4439 4.97927L3.24351 0.203907ZM1.25162 0.806413C1.16099 0.99829 1.11224 1.21173 1.11224 1.43142V14.5997C1.11224 14.8203 1.16131 15.0306 1.25287 15.2184L8.43357 8.00367L1.25162 0.806413ZM9.0961 8.66743L1.92416 15.8734C2.11447 15.9616 2.31697 16 2.51916 16C2.76885 16 3.01792 15.9403 3.24355 15.8047L11.4455 11.0221L9.0961 8.66743ZM14.5671 6.79803C14.5643 6.79616 14.5612 6.79428 14.5583 6.79272L12.2814 5.46677L9.75736 8.00273L12.283 10.5337C12.283 10.5337 14.5643 9.20368 14.5671 9.20212C14.9905 8.94493 15.2434 8.49555 15.2434 7.99992C15.2434 7.50429 14.9905 7.05491 14.5671 6.79803Z"/>
    </symbol>

    <symbol id="brand3" viewBox="0 0 17 16">
        <path d="M3.74252 1.35738C3.73443 1.36359 3.72822 1.37043 3.72075 1.37665C3.76615 1.32877 3.83143 1.27716 3.87434 1.24918C5.12663 0.435256 6.57354 0 8.17902 0C9.68065 0 11.0871 0.414737 12.2878 1.13602C12.3749 1.18763 12.6124 1.35054 12.7349 1.49852V1.49915C11.5765 0.22198 8.17156 2.96223 8.17156 2.96223C6.99388 2.05441 5.91071 1.43572 5.10425 1.21561C4.43022 1.03093 3.96388 1.18514 3.74252 1.35738ZM14.0469 2.5649C14.0114 2.52573 13.9729 2.48904 13.9374 2.44862C13.6446 2.12716 13.2846 2.04943 12.96 2.07057C12.6646 2.16322 11.2998 2.65506 9.61785 4.24312C9.61785 4.24312 11.5112 6.08425 12.6709 7.96642C13.8293 9.84859 14.5219 11.3278 14.096 13.381C15.3887 11.9602 16.1772 10.0724 16.1772 7.99938C16.1772 5.90145 15.3694 3.99192 14.0469 2.5649ZM11.1568 8.7704C10.6432 8.194 9.879 7.36826 8.86983 6.36468C8.64909 6.14519 8.41592 5.91637 8.17093 5.67947C8.17093 5.67947 7.80221 6.04819 7.32218 6.53319V6.53257C6.70785 7.15312 5.91133 7.96269 5.46924 8.43526C4.68205 9.2753 2.4268 11.9136 2.29996 13.3928C2.29996 13.3928 1.79817 12.2195 2.89936 9.51345C3.61878 7.74444 5.79257 5.08814 6.70039 4.2226C6.70039 4.2226 5.87092 3.30981 4.83003 2.67931L4.82382 2.67744C4.82382 2.67744 4.812 2.66812 4.79335 2.6563C4.2928 2.35784 3.74625 2.12778 3.22021 2.09731C2.68298 2.13524 2.34286 2.52821 2.34286 2.52821C1.00041 3.95958 0.179016 5.88341 0.179016 8C0.179016 12.4178 3.76055 16 8.17902 16C10.5238 16 12.6335 14.989 14.0973 13.3816C14.0966 13.3791 13.9287 12.3246 12.8524 10.8118C12.5993 10.4573 11.6747 9.35116 11.1568 8.7704Z"/>
    </symbol>

    <symbol id="brand4" viewBox="0 0 17 16">
        <g clip-path="url(#clip0_21_2392)">
            <path d="M13.1293 8.42133C12.8337 8.42133 12.5415 8.46458 12.2608 8.54986L9.5722 9.29417V11.9072L13.64 10.7811L13.8881 11.6773L9.5722 12.8721V15.4851L13.992 14.2616L14.0042 14.258C14.602 14.0749 15.139 13.6975 15.5162 13.1953C15.9066 12.6755 16.1129 12.0565 16.1129 11.4049C16.1129 9.75976 14.7745 8.42133 13.1293 8.42133Z"/>
            <path d="M10.918 1.66178L4.91211 0V14.9674L8.64227 16V4.43359C8.64227 4.17722 8.85086 3.96863 9.10723 3.96863C9.36361 3.96863 9.5722 4.17722 9.5722 4.43359V8.05078H10.0372C10.1213 8.05078 10.2047 8.04756 10.2873 8.04125C10.3423 8.03706 10.397 8.0315 10.4512 8.02456C10.5325 8.01422 10.613 8.00081 10.6923 7.9845C10.7452 7.97366 10.7977 7.9615 10.8496 7.94809C10.8756 7.94141 10.9015 7.93437 10.9272 7.92703C12.265 7.54625 13.2541 6.32925 13.291 4.87975C13.2917 4.85187 13.292 4.82394 13.292 4.79588C13.292 3.34359 12.3165 2.055 10.918 1.66178Z"/>
            <path d="M3.98215 8.22858L2.50224 8.63823C2.21768 8.70945 1.9449 8.82258 1.69134 8.97461C0.280369 9.82061 -0.179287 11.6568 0.666744 13.0678C1.00181 13.6266 1.49715 14.0515 2.09918 14.2965C2.45809 14.4425 2.84468 14.5166 3.23071 14.5165C3.47043 14.5165 3.70999 14.488 3.94246 14.4304L3.98212 14.4194V11.8066L2.7149 12.1574L2.46678 11.2611L3.98212 10.8416V8.22858H3.98215Z"/>
        </g>
        <defs>
            <clipPath id="clip0_21_2392">
                <rect width="16" height="16" fill="white" transform="translate(0.177795)"/>
            </clipPath>
        </defs>
    </symbol>

    <symbol id="selectArrow" viewBox="0 0 16 16">
        <path d="M12.4733 5.47332C12.4113 5.41084 12.3376 5.36124 12.2563 5.32739C12.1751 5.29355 12.088 5.27612 12 5.27612C11.912 5.27612 11.8248 5.29355 11.7436 5.32739C11.6623 5.36124 11.5886 5.41084 11.5266 5.47332L8.47329 8.52666C8.41132 8.58914 8.33758 8.63874 8.25634 8.67258C8.1751 8.70643 8.08797 8.72385 7.99996 8.72385C7.91195 8.72385 7.82481 8.70643 7.74357 8.67258C7.66233 8.63874 7.5886 8.58914 7.52663 8.52666L4.47329 5.47332C4.41132 5.41084 4.33758 5.36124 4.25634 5.32739C4.1751 5.29355 4.08797 5.27612 3.99996 5.27612C3.91195 5.27612 3.82481 5.29355 3.74357 5.32739C3.66233 5.36124 3.5886 5.41084 3.52663 5.47332C3.40246 5.59823 3.33276 5.7672 3.33276 5.94332C3.33276 6.11945 3.40246 6.28841 3.52663 6.41332L6.58663 9.47332C6.96163 9.84786 7.46996 10.0582 7.99996 10.0582C8.52996 10.0582 9.03829 9.84786 9.41329 9.47332L12.4733 6.41332C12.5975 6.28841 12.6672 6.11945 12.6672 5.94332C12.6672 5.7672 12.5975 5.59823 12.4733 5.47332V5.47332Z"/>
    </symbol>

    <symbol id="more" viewBox="0 0 20 20" >
        <path d="M1.66667 11.6666C2.58714 11.6666 3.33333 10.9204 3.33333 9.99992C3.33333 9.07944 2.58714 8.33325 1.66667 8.33325C0.746192 8.33325 0 9.07944 0 9.99992C0 10.9204 0.746192 11.6666 1.66667 11.6666Z"/>
        <path d="M9.99998 11.6666C10.9205 11.6666 11.6666 10.9204 11.6666 9.99992C11.6666 9.07944 10.9205 8.33325 9.99998 8.33325C9.0795 8.33325 8.33331 9.07944 8.33331 9.99992C8.33331 10.9204 9.0795 11.6666 9.99998 11.6666Z"/>
        <path d="M18.3334 11.6666C19.2538 11.6666 20 10.9204 20 9.99992C20 9.07944 19.2538 8.33325 18.3334 8.33325C17.4129 8.33325 16.6667 9.07944 16.6667 9.99992C16.6667 10.9204 17.4129 11.6666 18.3334 11.6666Z"/>
    </symbol>


</svg>
