<svg width="608" height="60" fill="none" xmlns="http://www.w3.org/2000/svg"><mask id="a" style="mask-type:alpha" maskUnits="userSpaceOnUse" x="0" y="0" width="608" height="60"><path opacity=".25" d="M0 10C0 4.477 4.477 0 10 0h588c5.523 0 10 4.477 10 10v40c0 5.523-4.477 10-10 10H10C4.477 60 0 55.523 0 50V10z" fill="url(#paint0_linear_74_1467)"/></mask><g mask="url(#a)"><path opacity=".25" fill-rule="evenodd" clip-rule="evenodd" d="M187.134-149.287l-12.387 6.697 203.147 375.794 12.388-6.697-203.148-375.794zM-73-8.663l12.388-6.696 203.147 375.794-12.388 6.696L-73-8.663zm24.775-13.392l12.387-6.697L167.31 347.042l-12.387 6.697L-48.225-22.055zm37.162-20.09l-12.387 6.697 203.147 375.794 12.387-6.696L-11.063-42.144zM1.324-48.84l12.388-6.696 203.147 375.794-12.387 6.696L1.324-48.841zm37.163-20.09l-12.388 6.696L229.246 313.56l12.388-6.696L38.487-68.93zm12.387-6.696l12.387-6.697 203.147 375.794-12.387 6.697L50.874-75.626zm37.162-20.09l-12.387 6.697 203.147 375.794 12.387-6.696L88.036-95.715zm12.387-6.696l12.388-6.696 203.147 375.794-12.387 6.696-203.148-375.794zm37.163-20.089l-12.388 6.696L328.345 259.99l12.388-6.697-203.147-375.794zm12.387-6.696l12.387-6.697L365.508 239.9l-12.388 6.697-203.147-375.794zm49.549-26.786l12.387-6.696 203.147 375.794-12.387 6.696-203.147-375.794zm37.162-20.089l-12.387 6.696 203.147 375.794 12.387-6.696-203.147-375.794zm12.387-6.697l12.388-6.696 203.147 375.794-12.387 6.696-203.148-375.794zm37.162-20.089l-12.387 6.697 203.147 375.794 12.388-6.697-203.148-375.794zm12.388-6.696l12.387-6.696 203.147 375.794-12.387 6.696-203.147-375.794zm37.162-20.089l-12.387 6.696 203.147 375.794 12.387-6.696-203.147-375.794zm12.387-6.697l12.388-6.696 203.147 375.794-12.387 6.696L348.17-236.34zm37.162-20.089l-12.387 6.697 203.147 375.794 12.388-6.697-203.148-375.794zm12.388-6.696l12.387-6.696 203.147 375.794-12.387 6.696L397.72-263.125zm37.162-20.089l-12.387 6.696L625.642 99.276l12.387-6.696-203.147-375.794zm12.387-6.696l12.388-6.697L662.804 79.187l-12.387 6.697L447.269-289.91zM484.432-310l-12.388 6.697L675.191 72.491l12.388-6.697L484.432-310z" fill="#fff"/></g><defs><linearGradient id="paint0_linear_74_1467" x1="0" y1="30" x2="628.267" y2="30" gradientUnits="userSpaceOnUse"><stop stop-color="#434DFE"/><stop offset="1" stop-color="#43A4FE"/></linearGradient></defs></svg>